<svg xmlns="http://www.w3.org/2000/svg" width="27.26" height="46.127" viewBox="0 0 27.26 46.127">
  <g id="그룹_1312" data-name="그룹 1312" transform="translate(-41 -303.873)">
    <text id="간암" transform="translate(55 346)" fill="#707070" font-size="14" font-family="NotoSansCJKkr-Regular, Noto Sans CJK KR" letter-spacing="-0.02em"><tspan x="-12.74" y="0">간암</tspan></text>
    <g id="그룹_909" data-name="그룹 909" transform="translate(-182.116 -696.047)">
      <g id="그룹_783" data-name="그룹 783" transform="translate(223.116 999.92)">
        <path id="패스_290" data-name="패스 290" d="M226.07,1019.549c-1.4,0-2.22-1.754-2.51-5.362h0c-.261-.961-1.215-6.435.871-10.283,1.564-2.886,4.442-4.22,8.536-3.951.562.037,1.273.142,1.96.243a20.05,20.05,0,0,0,2.148.246c.728.012,1.558-.017,2.45-.048.849-.03,1.728-.062,2.634-.062,2.281,0,5.173.177,7.3,1.556a1.866,1.866,0,0,1,.907,1.711,2.473,2.473,0,0,1-1.648,1.965,15.252,15.252,0,0,0-1.413.935,45.556,45.556,0,0,1-10.559,5.852c-3.151,1.1-6.5,3.124-7.321,4.418C229.136,1017.235,227.594,1019.549,226.07,1019.549Zm-1.921-5.481a.28.28,0,0,1,.015.071c.249,3.1.926,4.8,1.907,4.8,1,0,2.261-1.569,2.847-2.5.894-1.415,4.318-3.508,7.633-4.667A45,45,0,0,0,246.963,1006a13.74,13.74,0,0,1,1.516-.993,1.9,1.9,0,0,0,1.288-1.459,1.255,1.255,0,0,0-.632-1.154c-2-1.293-4.778-1.459-6.976-1.459-.9,0-1.768.031-2.612.061-.9.032-1.742.061-2.482.048a19.908,19.908,0,0,1-2.226-.252c-.676-.1-1.375-.2-1.912-.238-3.351-.222-5.837.69-7.365,2.7C222.6,1007.162,224.093,1013.834,224.149,1014.068Z" transform="translate(-223.116 -999.92)" fill="#707070"/>
      </g>
      <g id="그룹_784" data-name="그룹 784" transform="translate(237.676 1000.513)">
        <path id="패스_291" data-name="패스 291" d="M271.5,1013.175h-.014a.3.3,0,0,1-.289-.316l.489-10.692a.3.3,0,0,1,.605.028l-.489,10.692A.3.3,0,0,1,271.5,1013.175Z" transform="translate(-271.197 -1001.878)" fill="#707070"/>
      </g>
      <path id="패스_292" data-name="패스 292" d="M246.347,1014.394a.712.712,0,1,0-.712.712A.712.712,0,0,0,246.347,1014.394Z" transform="translate(-15.204 -9.595)" fill="#707070"/>
      <path id="패스_293" data-name="패스 293" d="M238.561,1025.107a.579.579,0,1,0-.579.578A.579.579,0,0,0,238.561,1025.107Z" transform="translate(-9.962 -17.156)" fill="#707070"/>
      <path id="패스_294" data-name="패스 294" d="M281.818,1011.466a1.09,1.09,0,1,0-1.089,1.091A1.089,1.089,0,0,0,281.818,1011.466Z" transform="translate(-39.406 -7.29)" fill="#707070"/>
      <path id="패스_295" data-name="패스 295" d="M251.6,1022.509l.492-.187.288.44.508.137-.026.526.33.41-.33.409.026.526-.508.137-.288.441-.492-.188-.492.188-.287-.441-.508-.137.027-.526-.331-.409.331-.41-.027-.526.508-.137.287-.44Z" transform="translate(-18.749 -15.619)" fill="#707070"/>
    </g>
  </g>
</svg>
