<svg xmlns="http://www.w3.org/2000/svg" width="64" height="50.101" viewBox="0 0 64 50.101">
  <g id="그룹_1306" data-name="그룹 1306" transform="translate(-23 -112.899)">
    <text id="영유아검진" transform="translate(55 159)" fill="#707070" font-size="14" font-family="NotoSansCJKkr-Regular, Noto Sans CJK KR" letter-spacing="-0.02em"><tspan x="-31.64" y="0">영유아검진</tspan></text>
    <g id="그룹_908" data-name="그룹 908" transform="translate(1585.256 -796.675)">
      <path id="패스_253" data-name="패스 253" d="M-1526.841,945.43a.819.819,0,0,0-.819.819.819.819,0,0,0,.819.819.819.819,0,0,0,.819-.819A.819.819,0,0,0-1526.841,945.43Z" transform="translate(-14.326 -24.738)" fill="#707070" stroke="#707070" stroke-width="0.2"/>
      <path id="패스_254" data-name="패스 254" d="M-1502.93,945.43a.818.818,0,0,0-.818.819.818.818,0,0,0,.818.819.82.82,0,0,0,.3-.059.818.818,0,0,0,.516-.759.812.812,0,0,0-.212-.545A.814.814,0,0,0-1502.93,945.43Z" transform="translate(-30.959 -24.738)" fill="#707070" stroke="#707070" stroke-width="0.2"/>
      <path id="패스_255" data-name="패스 255" d="M-1516.876,959.389a2.5,2.5,0,0,1-1.876.888,2.45,2.45,0,0,1-1.58-.855.385.385,0,0,0-.54-.064.386.386,0,0,0-.066.541,3.205,3.205,0,0,0,2.133,1.147c.052,0,.1,0,.154,0a3.3,3.3,0,0,0,2.319-1.117.385.385,0,0,0,0-.544A.385.385,0,0,0-1516.876,959.389Z" transform="translate(-18.956 -34.318)" fill="#707070" stroke="#707070" stroke-width="0.2"/>
      <path id="패스_256" data-name="패스 256" d="M-1514.287,919.589a1.6,1.6,0,0,0-.274.023,8.981,8.981,0,0,0-2.336-3.76,8.776,8.776,0,0,0-5.652-2.458c-.068-.368-.289-2.289,2.336-2.96a.386.386,0,0,0,.276-.468.379.379,0,0,0-.462-.279,3.437,3.437,0,0,0-2.87,2.663,3.17,3.17,0,0,0-3.543-1,.385.385,0,0,0-.284.463.38.38,0,0,0,.458.287c2.219-.526,2.923.8,3.107,1.3a8.848,8.848,0,0,0-6.807,3.909,8.979,8.979,0,0,0-1.221-1.46,8.777,8.777,0,0,0-5.652-2.458c-.068-.368-.289-2.289,2.336-2.96a.386.386,0,0,0,.276-.468.38.38,0,0,0-.462-.279,3.438,3.438,0,0,0-2.87,2.663,3.17,3.17,0,0,0-3.543-1,.386.386,0,0,0-.284.463.38.38,0,0,0,.457.287c2.22-.526,2.923.8,3.107,1.3a8.886,8.886,0,0,0-7.956,6.324c-1.145-.056-2.1,1.127-2.105,2.585a2.341,2.341,0,0,0,2.083,2.585,8.942,8.942,0,0,0,3.684,4.984,8.763,8.763,0,0,0,4.82,1.442,8.8,8.8,0,0,0,7.341-3.924,8.924,8.924,0,0,0,2.5,2.482,8.764,8.764,0,0,0,4.82,1.442,8.836,8.836,0,0,0,8.544-6.571,1.645,1.645,0,0,0,.175.01,2.362,2.362,0,0,0,2.031-2.586A2.363,2.363,0,0,0-1514.287,919.589Zm-16.052,6.258a8.163,8.163,0,0,1-.433.821,8.042,8.042,0,0,1-6.9,3.885,8.009,8.009,0,0,1-4.405-1.318,8.177,8.177,0,0,1-3.451-4.862.385.385,0,0,0-.176-.238.379.379,0,0,0-.193-.053.38.38,0,0,0-.1.013.875.875,0,0,1-.232.032c-.689,0-1.27-.832-1.27-1.816,0-.956.523-1.747,1.177-1.811a6.585,6.585,0,0,0-.1,1.179.383.383,0,0,0,.38.374h.011a.383.383,0,0,0,.37-.4,7.4,7.4,0,0,1,.178-1.48.122.122,0,0,0,0-.013,8.121,8.121,0,0,1,7.811-6.013,8.023,8.023,0,0,1,5.585,2.259,8.218,8.218,0,0,1,1.307,1.63,8.294,8.294,0,0,1,.438.819,8.2,8.2,0,0,1,.491,1.333s0,0,0,.008a7.192,7.192,0,0,1,.173,1.458.383.383,0,0,0,.37.4h.011a.383.383,0,0,0,.38-.374,6.972,6.972,0,0,0-.124-1.312c.028,0,.056-.009.085-.009.7,0,1.27.815,1.27,1.817,0,.984-.582,1.816-1.27,1.816a.884.884,0,0,1-.318-.06.379.379,0,0,0-.315.021.383.383,0,0,0-.191.253A8.351,8.351,0,0,1-1530.339,925.848Zm16.052-1.855a.882.882,0,0,1-.317-.06.378.378,0,0,0-.315.021.385.385,0,0,0-.191.253,8.085,8.085,0,0,1-7.9,6.347,8.009,8.009,0,0,1-4.406-1.318,8.161,8.161,0,0,1-2.481-2.568,9.049,9.049,0,0,0,.768-1.915,1.64,1.64,0,0,0,.175.01,2.353,2.353,0,0,0,2.03-2.55.8.8,0,0,0,.41.116.814.814,0,0,0,.809-.819.814.814,0,0,0-.809-.819.8.8,0,0,0-.631.312,2.044,2.044,0,0,0-1.808-1.414,1.6,1.6,0,0,0-.274.023,9.012,9.012,0,0,0-.671-1.575,8.089,8.089,0,0,1,6.889-3.886,8.022,8.022,0,0,1,5.584,2.259,8.21,8.21,0,0,1,2.237,3.782s0,0,0,.008a7.183,7.183,0,0,1,.173,1.458.383.383,0,0,0,.37.4h.011a.382.382,0,0,0,.38-.374,6.952,6.952,0,0,0-.124-1.312c.028,0,.056-.009.085-.009.7,0,1.27.815,1.27,1.817C-1513.017,923.161-1513.6,923.992-1514.287,923.992Z" transform="translate(0)" fill="#707070" stroke="#707070" stroke-width="0.2"/>
      <path id="패스_257" data-name="패스 257" d="M-1454.787,945.43a.819.819,0,0,0-.818.819.819.819,0,0,0,.818.819.819.819,0,0,0,.819-.819A.819.819,0,0,0-1454.787,945.43Z" transform="translate(-64.446 -24.738)" fill="#707070" stroke="#707070" stroke-width="0.2"/>
      <path id="패스_258" data-name="패스 258" d="M-1468.734,959.389a2.5,2.5,0,0,1-1.876.888,2.451,2.451,0,0,1-1.58-.855.385.385,0,0,0-.54-.064.385.385,0,0,0-.066.541,3.205,3.205,0,0,0,2.133,1.147c.051,0,.1,0,.154,0a3.3,3.3,0,0,0,2.319-1.117.385.385,0,0,0,0-.544A.385.385,0,0,0-1468.734,959.389Z" transform="translate(-52.46 -34.318)" fill="#707070" stroke="#707070" stroke-width="0.2"/>
    </g>
  </g>
</svg>
