<svg xmlns="http://www.w3.org/2000/svg" width="82" height="48" viewBox="0 0 82 48">
  <g id="그룹_1307" data-name="그룹 1307" transform="translate(-123 -115)">
    <text id="학교_밖_청소년" data-name="학교 밖 청소년" transform="translate(164 159)" fill="#707070" font-size="14" font-family="NotoSansCJKkr-Regular, Noto Sans CJK KR" letter-spacing="-0.02em"><tspan x="-40.796" y="0">학교 밖 청소년</tspan></text>
    <path id="패스_427" data-name="패스 427" d="M853.794,273.61h3.442c-.214-2.1-.807-2.834-1.2-3.092V262.8h-.018a1.127,1.127,0,0,0,.016-.129c.03-.524-.3-1-.984-1.421l-9.854-4.936a3.577,3.577,0,0,0-1.6-.384,3.215,3.215,0,0,0-1.579.409l-10.353,4.854a1.274,1.274,0,0,0-.3,2.364l.049.043,4.463,2.18v4.793l.033.087a7.22,7.22,0,0,0,6.884,4.132q.405,0,.839-.034c.534.028,5.483.159,7.42-4.287l.042-.1v-4.6l3.881-1.8.062-.031v6.7C853.9,271.443,853.794,273.61,853.794,273.61Zm-3.7-3.445c-1.779,3.918-6.241,3.609-6.431,3.594l-.041,0-.041,0c-4.824.394-6.465-2.815-6.715-3.379v-4.113l4.96,2.422a3.243,3.243,0,0,0,1.48.326h0a4.186,4.186,0,0,0,2.15-.621l4.638-2.157Zm4.458-7.1L845.02,267.5l-.046.025a3.218,3.218,0,0,1-1.663.494h0a2.356,2.356,0,0,1-1.024-.215l-10.319-5.04c-.243-.222-.285-.358-.279-.389.012-.064.18-.187.324-.24l10.437-4.891.033-.017a2.24,2.24,0,0,1,1.11-.291,2.579,2.579,0,0,1,1.125.263l9.827,4.921c.4.246.5.429.492.5C855.03,262.74,854.773,262.958,854.557,263.061Z" transform="translate(-679.692 -140.931)" fill="#707070"/>
  </g>
</svg>
