<svg xmlns="http://www.w3.org/2000/svg" width="26" height="53.066" viewBox="0 0 26 53.066">
  <g id="그룹_1310" data-name="그룹 1310" transform="translate(-151 -207.934)">
    <text id="위암" transform="translate(164 257)" fill="#707070" font-size="14" font-family="NotoSansCJKkr-Regular, Noto Sans CJK KR" letter-spacing="-0.02em"><tspan x="-12.74" y="0">위암</tspan></text>
    <g id="그룹_904" data-name="그룹 904" transform="translate(251.101 -741.715)">
      <path id="패스_275" data-name="패스 275" d="M-78.724,957.1a7.729,7.729,0,0,0-4.554-3.192,8.782,8.782,0,0,0-3.152-.132,2.813,2.813,0,0,1-.333.028c-.2,0-.317-.045-.47-.312a2.43,2.43,0,0,1-.2-1.28c0-.09,0-.18,0-.269v-1.856a.24.24,0,0,0-.24-.24h-2.187a.24.24,0,0,0-.24.24c0,.264-.02,6.481.143,7.448a6.574,6.574,0,0,0,.867,2.434l.1.155a2.965,2.965,0,0,1,.559,1.75,3.3,3.3,0,0,1-1.466,3.231,5.173,5.173,0,0,1-2,.627,5,5,0,0,0-2.293.814,3.718,3.718,0,0,0-1.863,2.929c-.01.072-.019.139-.029.2,0,.025-.01.062-.02,6.06a.24.24,0,0,0,.07.17.24.24,0,0,0,.17.071H-93.6a.24.24,0,0,0,.24-.241v-.7q0-.7,0-1.409a.993.993,0,0,1,.24-.74,1.526,1.526,0,0,1,1.111-.3c.271,0,.552.023.824.045.168.013.329.026.479.033.343.016.686.024,1.018.024h0a18.8,18.8,0,0,0,2.091-.113,11.5,11.5,0,0,0,6.547-2.695,10.514,10.514,0,0,0,3.447-8.052C-77.6,961.326-77.767,958.5-78.724,957.1Zm-2.492,12.6a11.26,11.26,0,0,1-6.412,2.633,19.4,19.4,0,0,1-3.07.088c-1.119-.052-2.913-.448-2.906,1.208,0,.7,0,1.407,0,2.111h-2.256s.01-5.979.017-6.022a3.6,3.6,0,0,1,1.788-2.967c1.671-1.105,2.53-.454,4.278-1.432a3.539,3.539,0,0,0,1.588-3.462,3.33,3.33,0,0,0-.694-2.013,6.393,6.393,0,0,1-.833-2.346c-.161-.957-.139-7.407-.139-7.407h2.187v1.856a3.225,3.225,0,0,0,.227,1.669c.27.471.541.466,1.041.4a8.531,8.531,0,0,1,3.066.128,7.51,7.51,0,0,1,4.412,3.094,10.386,10.386,0,0,1,1.076,4.582A10.26,10.26,0,0,1-81.216,969.7Z" fill="#707070" stroke="#6e6e6e" stroke-width="0.4"/>
      <path id="패스_276" data-name="패스 276" d="M-78.163,958a7.509,7.509,0,0,0-4.412-3.094,8.53,8.53,0,0,0-3.066-.128c-.5.063-.772.068-1.041-.4a3.225,3.225,0,0,1-.227-1.669v-1.856H-89.1s-.022,6.45.139,7.407a6.391,6.391,0,0,0,.833,2.346,3.331,3.331,0,0,1,.694,2.013,3.539,3.539,0,0,1-1.588,3.462c-1.748.977-2.606.326-4.278,1.431a3.6,3.6,0,0,0-1.788,2.968c-.007.043-.017,6.022-.017,6.022h2.256c0-.7,0-1.408,0-2.111-.006-1.656,1.788-1.26,2.906-1.208a19.4,19.4,0,0,0,3.07-.088,11.26,11.26,0,0,0,6.412-2.633,10.261,10.261,0,0,0,3.369-7.878A10.386,10.386,0,0,0-78.163,958Zm-2.456,12.282a11.023,11.023,0,0,1-6.276,2.572,18.3,18.3,0,0,1-2.037.11h0c-.325,0-.66-.008-1-.024-.145-.007-.3-.019-.463-.033-.281-.022-.572-.046-.863-.046a2.031,2.031,0,0,0-1.452.445,1.466,1.466,0,0,0-.38,1.082q0,.7,0,1.406v.464H-94.86c0-1.733.011-5.5.016-5.758.01-.061.019-.128.029-.2a3.253,3.253,0,0,1,1.652-2.592,4.529,4.529,0,0,1,2.1-.74,5.655,5.655,0,0,0,2.163-.683,3.773,3.773,0,0,0,1.711-3.693,3.4,3.4,0,0,0-.633-1.968l-.1-.153a6.108,6.108,0,0,1-.8-2.257c-.139-.823-.138-5.951-.136-7.127h1.706v1.616c0,.086,0,.173,0,.26a2.825,2.825,0,0,0,.263,1.528.94.94,0,0,0,.887.554,3.249,3.249,0,0,0,.393-.032,8.313,8.313,0,0,1,2.98.123,7.249,7.249,0,0,1,4.269,3c.875,1.278,1.04,4,1.034,4.443A10.058,10.058,0,0,1-80.619,970.281Z" transform="translate(-0.76 -0.759)" fill="#707070" stroke="#6e6e6e" stroke-width="0.4"/>
      <path id="패스_277" data-name="패스 277" d="M-50.762,980.944a.677.677,0,0,0-.677.677.677.677,0,0,0,.677.677.677.677,0,0,0,.677-.677A.677.677,0,0,0-50.762,980.944Z" transform="translate(-33.923 -23.618)" fill="#707070" stroke="#6e6e6e" stroke-width="0.4"/>
      <path id="패스_278" data-name="패스 278" d="M-52.825,990.741a.508.508,0,0,0-.508.508.508.508,0,0,0,.508.507.507.507,0,0,0,.508-.507A.508.508,0,0,0-52.825,990.741Z" transform="translate(-32.484 -31.059)" fill="#707070" stroke="#6e6e6e" stroke-width="0.4"/>
      <path id="패스_279" data-name="패스 279" d="M-41.8,987.161a.444.444,0,0,0-.444.444.444.444,0,0,0,.444.444.444.444,0,0,0,.444-.444A.444.444,0,0,0-41.8,987.161Z" transform="translate(-40.907 -28.34)" fill="#707070" stroke="#6e6e6e" stroke-width="0.4"/>
    </g>
  </g>
</svg>
