<svg xmlns="http://www.w3.org/2000/svg" width="48" height="52.866" viewBox="0 0 48 52.866">
  <g id="그룹_1309" data-name="그룹 1309" transform="translate(-31 -208.134)">
    <text id="암_전체_" data-name="암(전체)" transform="translate(55 257)" fill="#707070" font-size="14" font-family="NotoSansCJKkr-Regular, Noto Sans CJK KR" letter-spacing="-0.02em"><tspan x="-23.492" y="0">암(전체)</tspan></text>
    <g id="그룹_910" data-name="그룹 910" transform="translate(-547.094 -925.484)">
      <path id="패스_304" data-name="패스 304" d="M606.879,1156.989a1.4,1.4,0,1,0-.368,1.95A1.4,1.4,0,0,0,606.879,1156.989Z" transform="translate(-7.471 -11.955)" fill="#707070"/>
      <path id="패스_305" data-name="패스 305" d="M614.668,1149.753a2.094,2.094,0,0,0-3.54.111l-1.835-.429a8.522,8.522,0,0,0-2.509-8.776l1.68-1.165a1.531,1.531,0,0,0,.642.291,1.546,1.546,0,1,0-.586-2.8,1.533,1.533,0,0,0-.511,1.953l-1.8,1.246a8.527,8.527,0,0,0-3.989-1.649l.353-2.267a1.345,1.345,0,1,0-.706-.1l-.359,2.3c-.152-.007-.3-.023-.456-.023a8.52,8.52,0,0,0-3.6.8l-.552-.874a1.747,1.747,0,1,0-1.5.426,1.809,1.809,0,0,0,.329.03,1.737,1.737,0,0,0,.555-.094l.528.837a8.566,8.566,0,0,0-2.863,12.277l-1.519,1.545a1.544,1.544,0,1,0-1.086,2.839,1.571,1.571,0,0,0,.29.027,1.54,1.54,0,0,0,1.3-2.365l1.444-1.469a8.57,8.57,0,0,0,6.668,3.188c.262,0,.519-.016.774-.039l.443,2.674a1.329,1.329,0,0,0,.411,2.6,1.33,1.33,0,0,0,.307-2.625l-.454-2.742a8.6,8.6,0,0,0,6.525-5.371l1.806.422c0,.006,0,.01,0,.016a2.107,2.107,0,0,0,1.678,2.458,2.138,2.138,0,0,0,.394.037,2.1,2.1,0,0,0,1.734-3.292Zm-6.1-11.642a.834.834,0,0,1,1.508-.316h0a.833.833,0,1,1-1.509.315Zm-6.518-3.671a.615.615,0,0,1,.348-.109.6.6,0,0,1,.116.011.613.613,0,0,1,.4.26h0a.62.62,0,1,1-1.123.235A.618.618,0,0,1,602.055,1134.439Zm-6.515,3.665a1.048,1.048,0,0,1,.192-2.077,1.059,1.059,0,0,1,.2.019,1.041,1.041,0,0,1,.462,1.839l-.228.144A1.035,1.035,0,0,1,595.54,1138.1Zm-3.08,16.769a.834.834,0,1,1-.131-.625h0A.828.828,0,0,1,592.46,1154.873Zm10.833,4.759a.62.62,0,1,1-.611-.736.608.608,0,0,1,.116.011.62.62,0,0,1,.5.725Zm-2.236-4.724a7.873,7.873,0,1,1,7.872-7.873A7.882,7.882,0,0,1,601.057,1154.908ZM614.3,1151.2a1.392,1.392,0,1,1-1.371-1.65,1.345,1.345,0,0,1,.261.025,1.38,1.38,0,0,1,.892.583h0A1.38,1.38,0,0,1,614.3,1151.2Z" fill="#707070"/>
      <path id="패스_306" data-name="패스 306" d="M608.8,1166.388a.921.921,0,1,0,1.28.241A.92.92,0,0,0,608.8,1166.388Z" transform="translate(-9.618 -17.13)" fill="#707070"/>
      <path id="패스_307" data-name="패스 307" d="M619.277,1161.006a.634.634,0,1,0,.881.166A.634.634,0,0,0,619.277,1161.006Z" transform="translate(-15.185 -14.329)" fill="#707070"/>
      <path id="패스_308" data-name="패스 308" d="M605.446,1147.143a7,7,0,1,0,7,7A7,7,0,0,0,605.446,1147.143Zm0,13.281a6.285,6.285,0,1,1,6.285-6.285A6.292,6.292,0,0,1,605.446,1160.424Z" transform="translate(-4.389 -7.105)" fill="#707070"/>
    </g>
  </g>
</svg>
