<svg xmlns="http://www.w3.org/2000/svg" width="52" height="54.811" viewBox="0 0 52 54.811">
  <g id="그룹_1304" data-name="그룹 1304" transform="translate(-138 -20.189)">
    <text id="일반검진" transform="translate(164 71)" fill="#707070" font-size="14" font-family="NotoSansCJKkr-Regular, Noto Sans CJK KR" letter-spacing="-0.02em"><tspan x="-25.34" y="0">일반검진</tspan></text>
    <g id="그룹_911" data-name="그룹 911" transform="translate(-56.015 -492.305)">
      <path id="패스_268" data-name="패스 268" d="M210.2,528.074a.542.542,0,0,1-.408-.183,6.622,6.622,0,0,1-1.777-4.454v-3.1a7.329,7.329,0,0,1,4.144-6.305.548.548,0,1,1,.525.961,6.255,6.255,0,0,0-3.573,5.344v3.1a5.554,5.554,0,0,0,1.5,3.723.548.548,0,0,1-.042.774A.541.541,0,0,1,210.2,528.074Z" transform="translate(0 -0.397)" fill="#707070"/>
      <path id="패스_269" data-name="패스 269" d="M229.928,528.066a.547.547,0,0,1-.413-.908,5.543,5.543,0,0,0,1.443-3.661v-3.1a6.121,6.121,0,0,0-3.3-5.189.548.548,0,1,1,.559-.942,7.28,7.28,0,0,1,3.84,6.131v3.1a6.622,6.622,0,0,1-1.713,4.381A.548.548,0,0,1,229.928,528.066Z" transform="translate(-5.838 -0.457)" fill="#707070"/>
      <path id="패스_270" data-name="패스 270" d="M215.867,514.86a.643.643,0,0,1-.7.56h0a.643.643,0,0,1-.7-.56v-1.806a.643.643,0,0,1,.7-.56h0a.643.643,0,0,1,.7.56Z" transform="translate(-1.914)" fill="#707070"/>
      <path id="패스_271" data-name="패스 271" d="M227.62,514.86a.643.643,0,0,1-.7.56h0a.643.643,0,0,1-.7-.56v-1.806a.643.643,0,0,1,.7-.56h0a.643.643,0,0,1,.7.56Z" transform="translate(-5.403)" fill="#707070"/>
      <path id="패스_272" data-name="패스 272" d="M225.311,532.666a.866.866,0,0,0-1.222.061,8,8,0,0,1-11.869,0,.865.865,0,0,0-1.282,1.162,9.741,9.741,0,0,0,6.407,3.16v2.739a.811.811,0,0,0,1.621,0v-2.739a9.753,9.753,0,0,0,6.407-3.165A.865.865,0,0,0,225.311,532.666Z" transform="translate(-0.727 -5.775)" fill="#707070"/>
      <path id="패스_273" data-name="패스 273" d="M227.259,547.824a6.944,6.944,0,0,1-7.112-6.746v-.539h1.1v.539a6.027,6.027,0,0,0,12.03,0V533.8h1.1v7.277A6.942,6.942,0,0,1,227.259,547.824Z" transform="translate(-4.154 -6.33)" fill="#707070"/>
      <g id="그룹_777" data-name="그룹 777" transform="translate(227.32 523.799)">
        <circle id="타원_74" data-name="타원 74" cx="0.776" cy="0.776" r="0.776" transform="translate(1.572 1.571)" fill="#707070"/>
        <path id="패스_274" data-name="패스 274" d="M238,528.342a2.348,2.348,0,1,0,2.348,2.349A2.349,2.349,0,0,0,238,528.342Zm0,3.854a1.507,1.507,0,1,1,1.507-1.507A1.508,1.508,0,0,1,238,532.2Z" transform="translate(-235.648 -528.342)" fill="#707070"/>
      </g>
    </g>
  </g>
</svg>
