<svg xmlns="http://www.w3.org/2000/svg" width="40" height="52.6" viewBox="0 0 40 52.6">
  <g id="그룹_1311" data-name="그룹 1311" transform="translate(-253 -208.4)">
    <text id="대장암" transform="translate(273 257)" fill="#707070" font-size="14" font-family="NotoSansCJKkr-Regular, Noto Sans CJK KR" letter-spacing="-0.02em"><tspan x="-19.04" y="0">대장암</tspan></text>
    <g id="그룹_905" data-name="그룹 905" transform="translate(-93.281 -982.427)">
      <path id="패스_280" data-name="패스 280" d="M374.213,1202.328a3.676,3.676,0,0,0-1.3-7.116h-7.077l-.011,0h-.564l-1.222,0v-4a.242.242,0,0,0-.242-.243h-3.436a.242.242,0,0,0-.242.243v4.241a3.678,3.678,0,0,0,1.849,3.187h-2.062a.207.207,0,0,0-.035.007,13.163,13.163,0,0,1-3.59,10.55,3.683,3.683,0,0,0,3.679,3.679h8.345l.014,0h.3c0,.4,0,.98,0,1.568l0,1.552c0,.172,0,.343,0,.508a.243.243,0,0,0,.242.235H372.3a.243.243,0,0,0,.242-.244c0-.382,0-1.287,0-2.04,0-.729,0-1.446,0-1.821a3.678,3.678,0,0,0-1.856-3.191h2.282a.225.225,0,0,0,.034-.007,3.674,3.674,0,0,0,1.211-7.112Zm-1.3,6.632H359.906a.242.242,0,0,0,0,.485h.042l.012,0h8.96a3.2,3.2,0,0,1,3.138,3.191c0,.375,0,1.092,0,1.82,0,.624,0,1.351,0,1.8H369.1c0-.085,0-.172,0-.258l0-1.551c0-.724,0-1.439,0-1.812a.242.242,0,0,0-.242-.242h-5.071l-.014,0H359.96a3.194,3.194,0,1,1,0-6.388h13.009a.242.242,0,0,0,.242-.242v0h0a.242.242,0,0,0-.242-.242H359.96a3.194,3.194,0,1,1,0-6.388h3.749c.03,0,.059,0,.089,0l1.755,0h7.416a.242.242,0,1,0,0-.485h-.041l-.013,0h-9.257a3.2,3.2,0,0,1-3.053-3.187v-4h2.951v4a.242.242,0,0,0,.242.243l1.466,0,1.771,0h5.88a3.194,3.194,0,1,1,0,6.388H359.906a.242.242,0,0,0-.242.243h0v0a.242.242,0,0,0,.242.242h13.009a3.194,3.194,0,1,1,0,6.388Z" fill="#707070" stroke="#707070" stroke-width="0.3"/>
      <path id="패스_281" data-name="패스 281" d="M406.828,1215.963a.5.5,0,1,0,.5.5A.5.5,0,0,0,406.828,1215.963Z" transform="translate(-37.912 -18.928)" fill="#707070" stroke="#707070" stroke-width="0.3"/>
      <path id="패스_282" data-name="패스 282" d="M414.652,1242.78a.4.4,0,1,0,.405.4A.4.4,0,0,0,414.652,1242.78Z" transform="translate(-43.912 -39.243)" fill="#707070" stroke="#707070" stroke-width="0.3"/>
      <path id="패스_283" data-name="패스 283" d="M381.319,1256.614a.4.4,0,1,0,.405.4A.4.4,0,0,0,381.319,1256.614Z" transform="translate(-18.661 -49.723)" fill="#707070" stroke="#707070" stroke-width="0.3"/>
      <path id="패스_284" data-name="패스 284" d="M415.76,1227.644l-.012.242.234.063.132.2.226-.086.226.086.132-.2.234-.063-.012-.242.152-.189-.152-.189.012-.242-.234-.063-.132-.2-.226.086-.226-.086-.132.2-.234.063.012.242-.152.189Z" transform="translate(-44.943 -27.107)" fill="#707070" stroke="#707070" stroke-width="0.3"/>
      <path id="패스_285" data-name="패스 285" d="M401.967,1229.156l-.009.182.176.047.1.153.17-.065.17.065.1-.153.175-.047-.009-.182.114-.142-.114-.142.009-.182-.175-.048-.1-.152-.17.065-.17-.065-.1.152-.176.048.009.182-.114.142Z" transform="translate(-34.522 -28.418)" fill="#707070" stroke="#707070" stroke-width="0.3"/>
    </g>
  </g>
</svg>
