<svg xmlns="http://www.w3.org/2000/svg" width="76" height="53" viewBox="0 0 76 53">
  <g id="그룹_1308" data-name="그룹 1308" transform="translate(-235 -110)">
    <text id="휴일검진기관" transform="translate(273 159)" fill="#707070" font-size="14" font-family="NotoSansCJKkr-Regular, Noto Sans CJK KR" letter-spacing="-0.02em"><tspan x="-37.94" y="0">휴일검진기관</tspan></text>
    <g id="그룹_907" data-name="그룹 907" transform="translate(-221.826 -766.408)">
      <rect id="사각형_572" data-name="사각형 572" width="2.675" height="0.975" transform="translate(489.348 887.566)" fill="#707070"/>
      <rect id="사각형_573" data-name="사각형 573" width="2.676" height="0.975" transform="translate(494.304 887.566)" fill="#707070"/>
      <rect id="사각형_574" data-name="사각형 574" width="2.677" height="0.975" transform="translate(499.176 887.545)" fill="#707070"/>
      <rect id="사각형_575" data-name="사각형 575" width="2.675" height="0.664" transform="translate(489.348 890.41)" fill="#707070"/>
      <rect id="사각형_576" data-name="사각형 576" width="2.676" height="0.664" transform="translate(494.304 890.41)" fill="#707070"/>
      <rect id="사각형_577" data-name="사각형 577" width="2.677" height="0.664" transform="translate(499.176 890.395)" fill="#707070"/>
      <rect id="사각형_578" data-name="사각형 578" width="2.675" height="0.459" transform="translate(489.348 893.038)" fill="#707070"/>
      <rect id="사각형_579" data-name="사각형 579" width="2.676" height="0.459" transform="translate(494.304 893.038)" fill="#707070"/>
      <rect id="사각형_580" data-name="사각형 580" width="2.677" height="0.46" transform="translate(499.176 893.027)" fill="#707070"/>
      <rect id="사각형_581" data-name="사각형 581" width="2.675" height="0.459" transform="translate(489.348 895.576)" fill="#707070"/>
      <rect id="사각형_582" data-name="사각형 582" width="2.676" height="0.459" transform="translate(494.304 895.576)" fill="#707070"/>
      <rect id="사각형_583" data-name="사각형 583" width="2.677" height="0.46" transform="translate(499.176 895.566)" fill="#707070"/>
      <path id="패스_265" data-name="패스 265" d="M501.747,880.673a.313.313,0,0,1-.246-.119l-1.773-2.235-1.773,2.235a.314.314,0,1,1-.491-.39l2.018-2.545a.325.325,0,0,1,.492,0l2.019,2.545a.314.314,0,0,1-.245.509Z" transform="translate(-4.503 -0.41)" fill="#707070"/>
      <path id="패스_266" data-name="패스 266" d="M503.585,903.868H487.671a1.956,1.956,0,0,1-2-1.9V884.64a.479.479,0,0,1,.958,0v17.327a1.007,1.007,0,0,0,1.045.961h15.914a1.007,1.007,0,0,0,1.045-.961V884.64a.479.479,0,0,1,.958,0v17.327A1.957,1.957,0,0,1,503.585,903.868Z" transform="translate(-0.314 -2.88)" fill="#707070"/>
      <path id="패스_267" data-name="패스 267" d="M501.458,877.405a1,1,0,1,1-1-1A1,1,0,0,1,501.458,877.405Z" transform="translate(-5.276)" fill="#707070"/>
      <rect id="사각형_584" data-name="사각형 584" width="20.799" height="2.807" transform="translate(484.826 879.95)" fill="#707070"/>
    </g>
  </g>
</svg>
