<svg xmlns="http://www.w3.org/2000/svg" width="40" height="49.873" viewBox="0 0 40 49.873">
  <g id="그룹_1314" data-name="그룹 1314" transform="translate(-253 -300.127)">
    <text id="유방암" transform="translate(273 346)" fill="#707070" font-size="14" font-family="NotoSansCJKkr-Regular, Noto Sans CJK KR" letter-spacing="-0.02em"><tspan x="-19.04" y="0">유방암</tspan></text>
    <g id="그룹_903" data-name="그룹 903" transform="translate(-8.072 -356.218)">
      <path id="패스_53" data-name="패스 53" d="M284.686,658.4a5.131,5.131,0,0,1-.1,3.944,8.768,8.768,0,0,1-1.353,2.25c-.105.142-.2.288-.307.429a.4.4,0,1,1-.653-.459c.367-.532.755-1.05,1.112-1.589a5.186,5.186,0,0,0,.624-1.413.574.574,0,0,1-.581-.2,2.449,2.449,0,0,0-3.35.051.511.511,0,0,1-.555.134,9.452,9.452,0,0,0,.439,1.036,15.814,15.814,0,0,0,.883,1.355q1.931,2.693,3.879,5.375l3.76,5.205q.67.929,1.34,1.859a.421.421,0,0,1-.047.62l-2.319,2.319c-.292.292-.534.263-.772-.07q-1.152-1.618-2.314-3.23-1.317-1.836-2.634-3.671-1.027-1.43-2.057-2.857-.8-1.109-1.589-2.221c-.332-.464-.67-.925-.995-1.395a5.839,5.839,0,0,1-1.02-3.907,5.7,5.7,0,0,1,.4-1.711,5.582,5.582,0,0,1,2.41-2.843,5.8,5.8,0,0,1,4.71-.474,6.86,6.86,0,0,1,1.065.5,4.892,4.892,0,0,1,1.887,1.792,4.627,4.627,0,0,1,.692,1.555,11.337,11.337,0,0,1,.224,1.12,5.742,5.742,0,0,1-1.021,3.994c-.483.7-.984,1.379-1.48,2.067a.409.409,0,0,1-.554.091.373.373,0,0,1-.1-.546c.183-.278.388-.54.579-.813.385-.55.81-1.077,1.142-1.658a5.017,5.017,0,0,0,.286-4.529,4.76,4.76,0,0,0-1.565-2.079C284.739,658.429,284.722,658.421,284.686,658.4Zm-5.841.015c-.025.017-.052.033-.077.052a4.683,4.683,0,0,0-1.274,1.518,5.186,5.186,0,0,0-.515,3.683,5.743,5.743,0,0,0,1.049,2.147c.858,1.176,1.692,2.369,2.54,3.552.541.754,1.093,1.5,1.635,2.254.624.866,1.241,1.737,1.863,2.6q1.2,1.668,2.4,3.334c.222.309.446.618.683.946.611-.613,1.207-1.207,1.795-1.808a.2.2,0,0,0-.01-.188q-.429-.628-.875-1.243c-.357-.493-.723-.979-1.08-1.471q-1.17-1.615-2.333-3.234l-2.614-3.617c-.618-.855-1.225-1.717-1.856-2.561a7.712,7.712,0,0,1-1.456-2.864,5.506,5.506,0,0,1-.134-2.165A8.56,8.56,0,0,1,278.845,658.415Zm5.331,2.537c.024-.367.06-.684.061-1a2.429,2.429,0,0,0-2.736-2.466,2.554,2.554,0,0,0-2.07,3.421A3.333,3.333,0,0,1,284.176,660.952Z" transform="translate(-0.554 -0.305)" fill="#707070"/>
      <path id="패스_54" data-name="패스 54" d="M275.879,681.41c.283-.392.57-.786.855-1.182l2.678-3.732q.313-.436.623-.874a.424.424,0,0,1,.616-.151.413.413,0,0,1,.05.6q-.885,1.241-1.778,2.478l-2.361,3.288c-.1.142-.2.288-.309.427a.4.4,0,0,1-.634.048q-1.224-1.215-2.438-2.439a.4.4,0,0,1-.025-.515c.471-.642.944-1.281,1.409-1.927q1.661-2.314,3.315-4.633c.044-.062.093-.12.137-.181a.4.4,0,0,1,.586-.129.384.384,0,0,1,.07.58c-.248.355-.506.7-.759,1.054q-.946,1.312-1.894,2.623c-.441.608-.889,1.212-1.33,1.82-.209.289-.41.585-.618.876a.136.136,0,0,0,.013.209c.584.577,1.164,1.159,1.744,1.738C275.835,681.4,275.849,681.4,275.879,681.41Z" transform="translate(0 -3.234)" fill="#707070"/>
    </g>
  </g>
</svg>
