<svg xmlns="http://www.w3.org/2000/svg" width="64" height="48.234" viewBox="0 0 64 48.234">
  <g id="그룹_1313" data-name="그룹 1313" transform="translate(-132 -301.766)">
    <text id="자궁경부암" transform="translate(164 346)" fill="#707070" font-size="14" font-family="NotoSansCJKkr-Regular, Noto Sans CJK KR" letter-spacing="-0.02em"><tspan x="-31.64" y="0">자궁경부암</tspan></text>
    <g id="그룹_906" data-name="그룹 906" transform="translate(6.5 -901.242)">
      <g id="그룹_781" data-name="그룹 781" transform="translate(141.499 1203.16)">
        <path id="패스_286" data-name="패스 286" d="M159.329,1225.181h-2.872a.242.242,0,0,1-.225-.154c-.221-.567-2.147-5.583-1.68-7.108.077-.25.232-.61.4-.991a8.153,8.153,0,0,0,.6-1.655c.111-1.011-.713-2.038-1.585-3.124-1.045-1.3-2.229-2.778-1.969-4.532a2.889,2.889,0,0,1,.229-.774,16.507,16.507,0,0,0-4.892-1.316c-1.883-.08-3.071.418-3.387.914-.053.084-.178.28.058.731a4.879,4.879,0,0,0,1.44,1.141,2.811,2.811,0,0,1,2.212.081,2.918,2.918,0,0,1,1.372,1.206,1.739,1.739,0,0,1,.128,1.58,1.916,1.916,0,0,1-1.825,1.023,3.1,3.1,0,0,1-1.251-.274,2.852,2.852,0,0,1-1.481-1.435,1.061,1.061,0,0,1-.273-.1,6.619,6.619,0,0,1-2.412-2.125,2.984,2.984,0,0,1,.043-3.088c.872-1.371,2.892-2.116,5.479-2a21.663,21.663,0,0,1,6.64,1.884,8.458,8.458,0,0,1,7.645,0,21.664,21.664,0,0,1,6.642-1.885c2.588-.112,4.607.634,5.479,2a2.987,2.987,0,0,1,.044,3.088,6.625,6.625,0,0,1-2.411,2.125,1.063,1.063,0,0,1-.274.1,2.854,2.854,0,0,1-1.481,1.435,3.1,3.1,0,0,1-1.251.274h0a1.914,1.914,0,0,1-1.825-1.023,1.659,1.659,0,0,1-.007-1.293,2.981,2.981,0,0,1,3.719-1.574,4.884,4.884,0,0,0,1.44-1.14c.235-.451.111-.647.057-.731-.315-.5-1.5-.994-3.386-.913a16.509,16.509,0,0,0-4.892,1.316,2.892,2.892,0,0,1,.23.774c.26,1.754-.924,3.23-1.969,4.532-.872,1.086-1.7,2.113-1.585,3.124a8.154,8.154,0,0,0,.6,1.655c.164.381.32.741.4.991.467,1.526-1.458,6.541-1.68,7.108A.242.242,0,0,1,159.329,1225.181Zm-2.706-.484h2.54c.616-1.609,1.951-5.519,1.608-6.636-.069-.224-.219-.573-.378-.941a7.939,7.939,0,0,1-.632-1.794c-.133-1.21.752-2.313,1.689-3.48,1.031-1.285,2.1-2.613,1.867-4.158a2.414,2.414,0,0,0-.3-.85.242.242,0,0,1,.119-.345,17.253,17.253,0,0,1,5.3-1.45c.145-.006.285-.009.423-.009,1.618,0,2.95.45,3.394,1.146a1.145,1.145,0,0,1-.037,1.215,5.2,5.2,0,0,1-1.661,1.355l-.054.039a.242.242,0,0,1-.251.013,2.276,2.276,0,0,0-1.918.032,2.35,2.35,0,0,0-1.252,1.224,1.188,1.188,0,0,0,0,.923,1.444,1.444,0,0,0,1.383.736h0a2.613,2.613,0,0,0,1.053-.233,2.306,2.306,0,0,0,1.271-1.283.242.242,0,0,1,.2-.162.68.68,0,0,0,.248-.075,6.316,6.316,0,0,0,2.217-1.926,2.519,2.519,0,0,0-.023-2.6c-.766-1.2-2.675-1.883-5.049-1.78a21.479,21.479,0,0,0-6.578,1.892.243.243,0,0,1-.211-.009,7.962,7.962,0,0,0-7.392,0,.241.241,0,0,1-.211.009,21.5,21.5,0,0,0-6.576-1.891c-2.372-.1-4.283.577-5.049,1.78a2.518,2.518,0,0,0-.023,2.6,6.319,6.319,0,0,0,2.218,1.926.682.682,0,0,0,.247.074.242.242,0,0,1,.2.162,2.305,2.305,0,0,0,1.271,1.283,2.612,2.612,0,0,0,1.053.233,1.444,1.444,0,0,0,1.383-.736,1.268,1.268,0,0,0-.108-1.146,2.433,2.433,0,0,0-1.147-1,2.276,2.276,0,0,0-1.918-.032.241.241,0,0,1-.251-.013l-.035-.026a5.287,5.287,0,0,1-1.68-1.369,1.144,1.144,0,0,1-.037-1.214c.444-.7,1.776-1.147,3.393-1.147.137,0,.278,0,.423.009a17.254,17.254,0,0,1,5.3,1.45.242.242,0,0,1,.119.344,2.421,2.421,0,0,0-.3.85c-.229,1.545.837,2.873,1.867,4.157.937,1.167,1.821,2.27,1.689,3.48a7.936,7.936,0,0,1-.632,1.794c-.159.369-.309.717-.378.941C154.672,1219.178,156.007,1223.088,156.623,1224.7Z" transform="translate(-141.499 -1203.16)" fill="#707070" stroke="#707070" stroke-linecap="round" stroke-width="0.3"/>
      </g>
      <path id="패스_287" data-name="패스 287" d="M204.952,1217.735a.545.545,0,1,0-.545.544A.545.545,0,0,0,204.952,1217.735Z" transform="translate(-47.262 -10.633)" fill="#707070" stroke="#707070" stroke-linecap="round" stroke-width="0.3"/>
      <path id="패스_288" data-name="패스 288" d="M197.552,1228.012a.443.443,0,1,0-.443.442A.443.443,0,0,0,197.552,1228.012Z" transform="translate(-41.808 -18.498)" fill="#707070" stroke="#707070" stroke-linecap="round" stroke-width="0.3"/>
      <path id="패스_289" data-name="패스 289" d="M209.946,1225.6l.376-.143.22.337.389.1-.02.4.253.313-.253.313.02.4-.389.1-.22.337-.376-.144-.377.144-.219-.337-.389-.1.02-.4-.253-.313.253-.313-.02-.4.389-.1.219-.337Z" transform="translate(-50.949 -16.899)" fill="#707070" stroke="#707070" stroke-linecap="round" stroke-width="0.3"/>
    </g>
  </g>
</svg>
