<svg xmlns="http://www.w3.org/2000/svg" width="29" height="52.313" viewBox="0 0 29 52.313">
  <g id="그룹_1315" data-name="그룹 1315" transform="translate(-39 -394.687)">
    <text id="폐암" transform="translate(54 443)" fill="#707070" font-size="14" font-family="NotoSansCJKkr-Regular, Noto Sans CJK KR" letter-spacing="-0.02em"><tspan x="-12.74" y="0">폐암</tspan></text>
    <g id="그룹_1056" data-name="그룹 1056" transform="translate(-77.265 -928.096)">
      <path id="패스_540" data-name="패스 540" d="M179.05,1355.934a.785.785,0,1,0-.785-.784A.785.785,0,0,0,179.05,1355.934Z" transform="translate(-40.367 -20.563)" fill="#707070"/>
      <path id="패스_541" data-name="패스 541" d="M171.706,1364.744a.638.638,0,1,0,.638.639A.638.638,0,0,0,171.706,1364.744Z" transform="translate(-35.682 -27.32)" fill="#707070"/>
      <path id="패스_542" data-name="패스 542" d="M139.145,1348.917a.785.785,0,1,0-.785-.784A.785.785,0,0,0,139.145,1348.917Z" transform="translate(-14.386 -15.994)" fill="#707070"/>
      <path id="패스_543" data-name="패스 543" d="M131.8,1357.727a.638.638,0,1,0,.638.638A.637.637,0,0,0,131.8,1357.727Z" transform="translate(-9.701 -22.751)" fill="#707070"/>
      <path id="패스_544" data-name="패스 544" d="M180.444,1363.033l.022-.432-.417-.113-.237-.362-.4.153-.4-.153-.236.362-.417.113.022.432-.272.337.272.336-.022.432.417.113.236.362.4-.155.4.155.237-.362.417-.113-.022-.432.271-.336Z" transform="translate(-40.261 -25.616)" fill="#707070"/>
      <path id="패스_545" data-name="패스 545" d="M139.848,1356.981l.014-.274-.265-.072-.15-.23-.256.1-.257-.1-.15.23-.265.072.014.274-.173.214.173.213-.014.274.265.072.15.23.257-.1.256.1.15-.23.265-.072-.014-.274.172-.213Z" transform="translate(-14.386 -21.891)" fill="#707070"/>
      <path id="패스_546" data-name="패스 546" d="M142.357,1331.45c-.084-.152-2.089-3.753-5.008-5.379a3.461,3.461,0,0,0-1.509-.383,2.3,2.3,0,0,0-2.243,1.805.279.279,0,0,0-.013.057c0,.02-.071.7-.148,1.771l-1.309-.621v-5.656a.262.262,0,0,0-.262-.262h-2.307a.262.262,0,0,0-.262.262v5.706l-1.2.644c-.079-1.117-.151-1.822-.153-1.843a.277.277,0,0,0-.013-.057,2.3,2.3,0,0,0-2.243-1.805,3.467,3.467,0,0,0-1.511.384c-2.917,1.625-4.923,5.226-5.007,5.379-3.741,6.869-2.818,11.824-2.779,12.018a2.6,2.6,0,0,0,2.767,2.357,3,3,0,0,0,.5-.036,34.721,34.721,0,0,0,6.4-2.537c1.986-.86,2.091-4.272,2.094-4.4a58.652,58.652,0,0,0,.076-7.2.192.192,0,0,0,.022-.005l2.519-1.191h.09l2.444,1.127a58.668,58.668,0,0,0,.072,7.252c0,.145.11,3.557,2.08,4.41a34.882,34.882,0,0,0,6.426,2.545,3.094,3.094,0,0,0,.488.035,2.6,2.6,0,0,0,2.764-2.344C145.176,1343.275,146.1,1338.32,142.357,1331.45Zm-14.727,7.374c0,.032-.1,3.222-1.794,3.956a35.2,35.2,0,0,1-6.278,2.5,2.682,2.682,0,0,1-.4.027,2.089,2.089,0,0,1-2.252-1.922c-.009-.049-.921-4.99,2.723-11.678.02-.036,2.015-3.621,4.8-5.173a2.977,2.977,0,0,1,1.258-.319,1.806,1.806,0,0,1,1.738,1.424A70.948,70.948,0,0,1,127.63,1338.824Zm3.287-8.89h-.207a.263.263,0,0,0-.112.026l-2.221,1.05-.065-1.135,1.368-.737a.261.261,0,0,0,.138-.231v-5.6H131.6v5.56a.261.261,0,0,0,.15.236l1.643.78-.077,1.132-2.291-1.056A.259.259,0,0,0,130.918,1329.934Zm13.7,13.461a2.084,2.084,0,0,1-2.249,1.908,2.738,2.738,0,0,1-.39-.026,35.254,35.254,0,0,1-6.3-2.5c-1.678-.727-1.778-3.917-1.78-3.965a70.89,70.89,0,0,1,.2-11.173,1.806,1.806,0,0,1,1.738-1.424,2.963,2.963,0,0,1,1.256.318c2.785,1.551,4.783,5.137,4.8,5.172C145.542,1338.391,144.631,1343.332,144.619,1343.395Z" transform="translate(0 0)" fill="#707070"/>
    </g>
  </g>
</svg>
