<svg xmlns="http://www.w3.org/2000/svg" width="52" height="53" viewBox="0 0 52 53">
  <g id="그룹_1305" data-name="그룹 1305" transform="translate(-247 -22)">
    <text id="구강검진" transform="translate(273 71)" fill="#707070" font-size="14" font-family="NotoSansCJKkr-Regular, Noto Sans CJK KR" letter-spacing="-0.02em"><tspan x="-25.34" y="0">구강검진</tspan></text>
    <path id="패스_429" data-name="패스 429" d="M612.087,641.767a16.081,16.081,0,0,0-.455-5.46c-.958-3.154-4.6-3.54-4.755-3.554a5.513,5.513,0,0,0-3.009.477,5.212,5.212,0,0,1-3.813.222c-.573-.155-1.09-.441-1.666-.569a6.5,6.5,0,0,0-2.034-.131c-.154.014-3.8.4-4.756,3.554a13.991,13.991,0,0,0-.457,3.791,36.565,36.565,0,0,0,2.277,12.478c.575,1.633,1.3,3.533,2.729,4.639,1.513,1.17,2.814,0,2.876-1.611.19-1.115.731-4.16.954-4.859.005-.016.523-1.557,1.639-1.59,1.115.034,1.634,1.574,1.639,1.59.223.7.764,3.745.954,4.859.042,1.1.745,2.465,2.1,2.036a3.96,3.96,0,0,0,1.919-1.7,17.117,17.117,0,0,0,2.044-4.773,51.409,51.409,0,0,0,1.33-5.672A34.171,34.171,0,0,0,612.087,641.767ZM592.7,636.617c.734-2.415,3.644-2.736,3.768-2.748a4.453,4.453,0,0,1,2.383.364,8.894,8.894,0,0,0,1.375.409,5.518,5.518,0,0,0,2.778,0,8.866,8.866,0,0,0,1.375-.409,4.454,4.454,0,0,1,2.383-.364c.124.012,3.034.333,3.768,2.748a18.632,18.632,0,0,1-.013,8c-.016.1-1.221,7.641-3.317,10.706-.317.51-.908,1.189-1.376,1.262-.152-.088-.376-.4-.411-1.164-.028-.167-.7-4.093-.989-5-.031-.1-.775-2.388-2.772-2.388l-.035,0-.035,0c-2,0-2.742,2.291-2.772,2.388-.29.912-.961,4.838-.989,5-.034.765-.26,1.076-.412,1.164-.468-.073-1.059-.752-1.375-1.262-2.1-3.065-3.3-10.6-3.318-10.706A18.659,18.659,0,0,1,592.7,636.617Z" transform="translate(-328.138 -610.72)" fill="#707070"/>
  </g>
</svg>
