<svg xmlns="http://www.w3.org/2000/svg" width="30.714" height="38.996" viewBox="0 0 30.714 38.996">
  <g id="logo_symbol" transform="translate(0 0)">
    <path id="패스_557" data-name="패스 557" d="M386.44-142.15a15.355,15.355,0,0,0-15.355-15.355,15.356,15.356,0,0,0-15.356,15.355,15.356,15.356,0,0,0,15.356,15.356v8.285C387.012-127.651,386.44-142.15,386.44-142.15Zm-7.238.377a6.965,6.965,0,0,1-3.372,2.806,10.924,10.924,0,0,0-2.91,1.99c-.606.622-1.769,1.849-1.834,2.756L371-134.6a7.823,7.823,0,0,0-1.75-2.374,10.924,10.924,0,0,0-2.91-1.99,6.956,6.956,0,0,1-3.372-2.806c-1.807-3.619,1.315-8.185,5.415-6.913a3.079,3.079,0,0,1,1.976,1.56,2.641,2.641,0,0,1-.588,3.034v.007h-2.243v2.437h2.337v2.336H372.3v-2.336h2.336v-2.437H372.4v-.007a2.642,2.642,0,0,1-.589-3.034,3.083,3.083,0,0,1,1.977-1.56C377.887-149.958,381.008-145.392,379.2-141.773Z" transform="translate(-355.729 157.505)" fill="#dbdbdb"/>
  </g>
</svg>
