<svg id="ic_search_gray" xmlns="http://www.w3.org/2000/svg" width="24" height="24" viewBox="0 0 24 24">
  <defs>
    <style>
      .cls-1 {
        fill: rgba(255,255,255,0);
      }

      .cls-2 {
        fill: #707070;
        stroke: #707070;
        stroke-width: 0.2px;
      }
    </style>
  </defs>
  <rect id="사각형_636" data-name="사각형 636" class="cls-1" width="24" height="24"/>
  <path id="패스_445" data-name="패스 445" class="cls-2" d="M382.032,1136.853l-4.413-4.313c-.007-.007-.016-.009-.023-.015a6.268,6.268,0,0,0,1.668-4.246,6.526,6.526,0,1,0-6.525,6.38,6.578,6.578,0,0,0,3.952-1.315.6.6,0,0,0,.042.061l4.412,4.314a.639.639,0,0,0,.887,0A.6.6,0,0,0,382.032,1136.853Zm-14.783-8.574a5.493,5.493,0,1,1,5.491,5.37A5.437,5.437,0,0,1,367.249,1128.279Z" transform="translate(-362.216 -1117.899)"/>
</svg>
