<svg id="그룹_1308" data-name="그룹 1308" xmlns="http://www.w3.org/2000/svg" width="328" height="40" viewBox="0 0 328 40">
  <g id="사각형_666" data-name="사각형 666" fill="none" stroke="#dbdbdb" stroke-width="1">
    <rect width="328" height="40" rx="20" stroke="none"/>
    <rect x="0.5" y="0.5" width="327" height="39" rx="19.5" fill="none"/>
  </g>
  <g id="구성_요소" data-name="구성 요소" transform="translate(292 8)">
    <rect id="사각형_636" data-name="사각형 636" width="24" height="24" fill="rgba(255,255,255,0)"/>
    <path id="패스_445" data-name="패스 445" d="M382.032,1136.853l-4.413-4.313c-.007-.007-.016-.009-.023-.015a6.268,6.268,0,0,0,1.668-4.246,6.526,6.526,0,1,0-6.525,6.38,6.578,6.578,0,0,0,3.952-1.315.6.6,0,0,0,.042.061l4.412,4.314a.639.639,0,0,0,.887,0A.6.6,0,0,0,382.032,1136.853Zm-14.783-8.574a5.493,5.493,0,1,1,5.491,5.37A5.437,5.437,0,0,1,367.249,1128.279Z" transform="translate(-362.216 -1117.899)" fill="#dbdbdb" stroke="#dbdbdb" stroke-width="0.2"/>
  </g>
</svg>
