<svg id="floating_fillter" xmlns="http://www.w3.org/2000/svg" width="40" height="40" viewBox="0 0 40 40">
  <defs>
    <style>
      .cls-1 {
        fill: #fff;
        stroke: #dbdbdb;
      }

      .cls-2, .cls-3 {
        fill: #111;
      }

      .cls-2 {
        opacity: 0;
      }

      .cls-4 {
        stroke: none;
      }

      .cls-5 {
        fill: none;
      }
    </style>
  </defs>
  <g id="타원_40" data-name="타원 40" class="cls-1">
    <circle class="cls-4" cx="20" cy="20" r="20"/>
    <circle class="cls-5" cx="20" cy="20" r="19.5"/>
  </g>
  <g id="그룹_928" data-name="그룹 928" transform="translate(-2940 -531)">
    <rect id="사각형_634" data-name="사각형 634" class="cls-2" width="24" height="24" transform="translate(2948 539)"/>
    <g id="그룹_927" data-name="그룹 927" transform="translate(2675.1 -578.026)">
      <path id="패스_441" data-name="패스 441" class="cls-3" d="M292.865,1138.861h-5.973c-.018,0-.035,0-.052,0-.032,0-.047-.014-.055-.045a1.971,1.971,0,0,0-.415-.811,2.2,2.2,0,0,0-1.98-.774,2.126,2.126,0,0,0-1.018.405,2.052,2.052,0,0,0-.8,1.151c-.017.063-.046.074-.1.074q-1.35,0-2.7,0-1.638,0-3.275,0a.758.758,0,0,0-.243.034.478.478,0,0,0-.33.38.551.551,0,0,0,.188.568.609.609,0,0,0,.4.109h5.991c.038,0,.056.012.068.051a2.8,2.8,0,0,0,.126.345,2.191,2.191,0,0,0,2.275,1.233,2.12,2.12,0,0,0,1.021-.411,2.048,2.048,0,0,0,.793-1.144c.018-.064.048-.074.1-.074q1.513,0,3.027,0H292.7c.082,0,.165,0,.247,0a.593.593,0,0,0,.162-.031.561.561,0,0,0,.186-.9A.581.581,0,0,0,292.865,1138.861Zm-8.192,1.646a1.1,1.1,0,0,1,0-2.2,1.1,1.1,0,0,1,0,2.2Z" transform="translate(-0.001 -4.019)"/>
      <path id="패스_442" data-name="패스 442" class="cls-3" d="M276.5,1131.359q4.619,0,9.237,0a.27.27,0,0,0,.034,0c.045,0,.066.014.081.06a3.615,3.615,0,0,0,.14.375,2.052,2.052,0,0,0,.7.813,2.116,2.116,0,0,0,.9.369,2.219,2.219,0,0,0,2.128-.848,1.87,1.87,0,0,0,.333-.676c.025-.093.027-.093.125-.093h2.538c.073,0,.146,0,.219,0a.488.488,0,0,0,.463-.33.554.554,0,0,0-.112-.605.544.544,0,0,0-.418-.156h-2.739a.054.054,0,0,1-.061-.046,2.627,2.627,0,0,0-.117-.335,2.159,2.159,0,0,0-1.639-1.236,2.108,2.108,0,0,0-.884.035,2.183,2.183,0,0,0-.853.421,2.047,2.047,0,0,0-.72,1.075c-.022.08-.011.086-.118.086h-9.2c-.044,0-.088,0-.133,0a.493.493,0,0,0-.468.339.549.549,0,0,0,.115.6A.572.572,0,0,0,276.5,1131.359Zm11.455-1.65a1.1,1.1,0,0,1,.007,2.205,1.1,1.1,0,0,1-.007-2.205Z" transform="translate(0 -2.008)"/>
      <path id="패스_443" data-name="패스 443" class="cls-3" d="M276.426,1122.761h2.739c.094,0,.094,0,.119.09a1.858,1.858,0,0,0,.268.588,2.181,2.181,0,0,0,1.554.952,2.079,2.079,0,0,0,1.067-.126,2.12,2.12,0,0,0,1.312-1.425.09.09,0,0,1,.107-.079q2.336,0,4.673,0h3.222c.486,0,.971,0,1.456,0a.484.484,0,0,0,.323-.129.574.574,0,0,0,.138-.625.518.518,0,0,0-.5-.334h-9.316c-.051,0-.082,0-.1-.066a1.892,1.892,0,0,0-.358-.726,2.19,2.19,0,0,0-1.5-.838,2.07,2.07,0,0,0-.958.1,2.108,2.108,0,0,0-1.387,1.452.089.089,0,0,1-.1.077q-1.351,0-2.7,0a.713.713,0,0,0-.231.034.556.556,0,0,0-.245.834A.5.5,0,0,0,276.426,1122.761Zm4.969-1.645a1.1,1.1,0,0,1-.031,2.2,1.1,1.1,0,0,1,.031-2.2Z" transform="translate(-0.001)"/>
    </g>
  </g>
</svg>
