<svg id="ic_bookmark_balck" xmlns="http://www.w3.org/2000/svg" width="24" height="24" viewBox="0 0 24 24">
  <defs>
    <style>
      .cls-1 {
        fill: #111;
      }

      .cls-2 {
        fill: none;
      }
    </style>
  </defs>
  <path id="패스_243" data-name="패스 243" class="cls-1" d="M841.393,344.181a1.582,1.582,0,0,0-1.579-1.135c-.521,0-1.041-.016-1.561-.008q-1.159-.021-2.317-.039a.477.477,0,0,1-.212-.035c-.173-.088-.24-.612-.3-.788l-.332-1.016q-.32-.979-.643-1.957a1.644,1.644,0,0,0-3.179,0c-.374,1.15-.753,2.3-1.112,3.453a.481.481,0,0,1-.551.4c-1.214-.018-2.43-.009-3.644-.006a1.635,1.635,0,0,0-.986,2.99c.978.717,1.955,1.435,2.945,2.136a.494.494,0,0,1,.226.665c-.386,1.119-.74,2.251-1.105,3.378a1.649,1.649,0,0,0,2.6,1.887c.972-.7,1.947-1.4,2.91-2.121a.432.432,0,0,1,.611,0c.813.611,1.637,1.206,2.466,1.795a3.888,3.888,0,0,0,1.818.7,1.625,1.625,0,0,0,1.212-2.309c-.367-1.127-.724-2.256-1.1-3.379a.439.439,0,0,1,.193-.583c1.008-.718,2.005-1.449,3-2.18A1.607,1.607,0,0,0,841.393,344.181Zm-1.609.812q-1.455,1.06-2.911,2.118a1.642,1.642,0,0,0-.672,2.022q.558,1.745,1.125,3.487c.049.151.142.31-.032.43s-.3-.026-.422-.116c-.993-.717-1.982-1.439-2.975-2.155a1.612,1.612,0,0,0-2.066,0c-.973.7-1.943,1.41-2.916,2.111-.141.1-.28.294-.481.16-.233-.156-.056-.361,0-.53.361-1.141.738-2.277,1.1-3.417a1.621,1.621,0,0,0-.646-1.968q-1.5-1.093-3-2.179c-.12-.087-.26-.163-.2-.347s.226-.152.369-.152h1.914c.6,0,1.2,0,1.8,0a1.643,1.643,0,0,0,1.672-1.225q.58-1.756,1.151-3.515c.05-.151.07-.332.283-.325.189.007.21.174.255.314q.574,1.758,1.151,3.516a1.649,1.649,0,0,0,1.7,1.235c1.214,0,2.429,0,3.643,0,.15,0,.341-.063.41.145S839.918,344.895,839.784,344.993Z" transform="translate(-821.25 -333.977)"/>
  <rect id="rectangle" class="cls-2" width="24" height="24"/>
</svg>
