<svg id="logo_제휴" xmlns="http://www.w3.org/2000/svg" width="32" height="14.742" viewBox="0 0 32 14.742">
  <g id="그룹_1004" data-name="그룹 1004" transform="translate(18.412 2.729)">
    <path id="패스_470" data-name="패스 470" d="M174.008,261.571a5.09,5.09,0,0,1-2.255,1.173l-.647-.841a4.751,4.751,0,0,0,1.651-.7,2.665,2.665,0,0,0,1.05-1.278h-2.2v-1.084h3.6A3.334,3.334,0,0,1,174.008,261.571Zm-1.694,4.276v-3.01H177.6v3.01Zm4.084-1.926H173.5v.841H176.4Zm.032-1.362v-1.152h-1.438v-1.085h1.438v-1.867h1.191v4.1Z" transform="translate(-171.106 -258.456)" fill="#1a1a1a"/>
    <path id="패스_471" data-name="패스 471" d="M235.021,262.863a5.935,5.935,0,0,1-.739-.349,2.571,2.571,0,0,1-.876-.761,3.077,3.077,0,0,1-.836.807,3.379,3.379,0,0,1-.891.454l-.7-.917a4.3,4.3,0,0,0,1.195-.66,1.58,1.58,0,0,0,.62-1.342v-.16H231.48v-1.085h3.853v1.085h-1.3v.16a1.459,1.459,0,0,0,.6,1.3,4.426,4.426,0,0,0,1.019.547Zm-2.726,2.9v-2.515h1.215v1.43h4.213v1.085Zm4.076-1.893v-5.416h1.191v5.416Z" transform="translate(-224.135 -258.456)" fill="#1a1a1a"/>
  </g>
  <path id="패스_472" data-name="패스 472" d="M123.214,265.161l2.449-3.349h-2.138l-1.878,2.836v-2.836h-1.779v7.008h1.779v-2.94l1.974,2.94h2.243Z" transform="translate(-107.312 -258.699)" fill="#7db72c"/>
  <path id="패스_473" data-name="패스 473" d="M16.279,247.119a6.276,6.276,0,1,1,6.279-6.275A6.284,6.284,0,0,1,16.279,247.119Zm0-9.731a3.456,3.456,0,1,0,3.458,3.456A3.461,3.461,0,0,0,16.279,237.388Z" transform="translate(-10 -234.567)" fill="#3076bc"/>
  <g id="그룹_1005" data-name="그룹 1005" transform="translate(6.56 10.857)">
    <path id="패스_474" data-name="패스 474" d="M71.288,331.752a2.142,2.142,0,0,1-2.14-2.139H67.4a3.888,3.888,0,0,0,7.775,0H73.429A2.142,2.142,0,0,1,71.288,331.752Z" transform="translate(-67.4 -329.613)" fill="#e54184"/>
  </g>
</svg>
