<svg id="link_navigation" xmlns="http://www.w3.org/2000/svg" width="64" height="64" viewBox="0 0 64 64">
  <rect id="사각형_614" data-name="사각형 614" width="64" height="64" fill="#111" opacity="0"/>
  <g id="그룹_890" data-name="그룹 890" transform="translate(-48 -609)">
    <g id="그룹_877" data-name="그룹 877" transform="translate(0 236)">
      <text id="내비게이션" transform="translate(53 424)" fill="#111" font-size="12" font-family="NotoSansCJKkr-Regular, Noto Sans CJK KR" letter-spacing="-0.02em"><tspan x="0" y="0">내비게이션</tspan></text>
      <g id="구성_요소" data-name="구성 요소" transform="translate(68 381)">
        <path id="패스_244" data-name="패스 244" d="M778.529,477.437c.032.234-.052.323-.219.275a2.018,2.018,0,0,1-.45-.2c-2.383-1.372-4.768-2.739-7.139-4.131a.631.631,0,0,0-.752.012c-2.317,1.353-4.643,2.691-6.966,4.034-.1.058-.2.113-.3.173-.145.089-.324.192-.461.086-.183-.142-.036-.333.032-.492q3.79-8.814,7.583-17.627c.092-.215.167-.482.432-.494.3-.013.379.268.479.5q3.284,7.548,6.57,15.1.534,1.228,1.068,2.456C778.457,477.244,778.5,477.368,778.529,477.437Z" transform="translate(-758.153 -456.075)" fill="#111"/>
        <rect id="사각형_587" data-name="사각형 587" width="24" height="24" fill="none"/>
      </g>
    </g>
  </g>
</svg>
