<svg id="link_taxi" xmlns="http://www.w3.org/2000/svg" width="64" height="64" viewBox="0 0 64 64">
  <rect id="사각형_615" data-name="사각형 615" width="64" height="64" fill="#111" opacity="0"/>
  <g id="그룹_891" data-name="그룹 891" transform="translate(-162 -609)">
    <g id="그룹_878" data-name="그룹 878" transform="translate(0 236)">
      <text id="택시호출" transform="translate(173 424)" fill="#111" font-size="12" font-family="NotoSansCJKkr-Regular, Noto Sans CJK KR" letter-spacing="-0.02em"><tspan x="0" y="0">택시호출</tspan></text>
      <g id="구성_요소" data-name="구성 요소" transform="translate(182 381)">
        <rect id="사각형_587" data-name="사각형 587" width="24" height="24" fill="none"/>
        <g id="그룹_788" data-name="그룹 788" transform="translate(-131.598 -1408.9)">
          <path id="패스_301" data-name="패스 301" d="M152.259,1431.824l-.748-.712a1.587,1.587,0,0,1-.387-.586l-1.826-4.809a1.484,1.484,0,0,0-1.372-.987h-8.5a1.484,1.484,0,0,0-1.372.987l-1.826,4.809a1.584,1.584,0,0,1-.387.586l-.748.712a1.632,1.632,0,0,0-.5,1.181v2.753a1.548,1.548,0,0,0,1.316,1.572v1.373a.763.763,0,0,0,.761.761h.892a.763.763,0,0,0,.761-.761v-1.362h10.7v1.362a.763.763,0,0,0,.761.761h.892a.763.763,0,0,0,.761-.761v-1.373a1.548,1.548,0,0,0,1.315-1.572V1433A1.631,1.631,0,0,0,152.259,1431.824Zm-1.974,2.1a.9.9,0,1,1-.839.9A.87.87,0,0,1,150.284,1433.921Zm-13.217,0a.9.9,0,1,1-.839.9A.87.87,0,0,1,137.068,1433.921Zm9.444,2.456h-5.671v-1.326h5.671Zm1.878-5.007h-9.428a1.011,1.011,0,0,1-.9-1.361l1.029-3.081a.959.959,0,0,1,.9-.676h7.37a.96.96,0,0,1,.9.676l1.028,3.081A1.011,1.011,0,0,1,148.39,1431.371Z" transform="translate(0 -9.567)" fill="#111"/>
          <path id="패스_302" data-name="패스 302" d="M170.746,1413.739a1.188,1.188,0,0,0-1.135-.839h-3.635a1.188,1.188,0,0,0-1.135.839l-.434,1.413h6.773Z" transform="translate(-24.108 0)" fill="#111"/>
        </g>
      </g>
    </g>
  </g>
</svg>
