<svg id="my_profile" xmlns="http://www.w3.org/2000/svg" width="48" height="48" viewBox="0 0 48 48">
  <circle id="타원_131" data-name="타원 131" cx="24" cy="24" r="24" fill="#fff"/>
  <g id="logo_symbol_gray" transform="translate(13 10)">
    <path id="패스_557" data-name="패스 557" d="M377.648-146.787A10.841,10.841,0,0,0,366.689-157.5a10.841,10.841,0,0,0-10.96,10.718,10.841,10.841,0,0,0,10.96,10.719v5.783C378.056-136.666,377.648-146.787,377.648-146.787Zm-5.166.263a4.946,4.946,0,0,1-2.407,1.959A7.806,7.806,0,0,0,368-143.176c-.433.434-1.263,1.291-1.309,1.924l-.06-.267a5.471,5.471,0,0,0-1.249-1.657,7.808,7.808,0,0,0-2.077-1.389,4.94,4.94,0,0,1-2.407-1.959,3.366,3.366,0,0,1,3.865-4.825,2.19,2.19,0,0,1,1.41,1.089,1.819,1.819,0,0,1-.42,2.118v0h-1.6v1.7h1.668v1.631h1.739v-1.631h1.667v-1.7h-1.6v0a1.819,1.819,0,0,1-.42-2.118,2.192,2.192,0,0,1,1.411-1.089A3.366,3.366,0,0,1,372.482-146.524Z" transform="translate(-355.729 157.505)" fill="#00a7af"/>
  </g>
</svg>
