<svg xmlns="http://www.w3.org/2000/svg" width="77" height="24" viewBox="0 0 77 24">
  <g id="그룹_1305" data-name="그룹 1305" transform="translate(-52 -228)">
    <text id="전화하기" transform="translate(106 245)" fill="#707070" font-size="12" font-family="NotoSansCJKkr-Regular, Noto Sans CJK KR"><tspan x="-22.08" y="0">전화하기</tspan></text>
    <g id="구성_요소_1" data-name="구성 요소 1" transform="translate(52 228)">
      <g id="baseline-call-24px">
        <path id="패스_59" data-name="패스 59" d="M0,0H24V24H0Z" fill="none"/>
      </g>
      <path id="패스_440" data-name="패스 440" d="M-552.165,892.025a8.82,8.82,0,0,1-3.232-.812,19.246,19.246,0,0,1-5.138-3.418,23,23,0,0,1-4.686-5.7,11.544,11.544,0,0,1-1.489-3.918,3.518,3.518,0,0,1,.107-1.849,1.015,1.015,0,0,1,.157-.3,8.492,8.492,0,0,1,1.729-1.659,1.761,1.761,0,0,1,2.351.242,6.724,6.724,0,0,1,1.629,2.21A1.818,1.818,0,0,1-561,878.9a10.97,10.97,0,0,1-.77.8.807.807,0,0,0-.251.791,3.227,3.227,0,0,0,.48,1.113,15.084,15.084,0,0,0,1.982,2.407,22.345,22.345,0,0,0,2.61,2.381,5.007,5.007,0,0,0,1.459.828.933.933,0,0,0,1.1-.262,6.35,6.35,0,0,1,.788-.75,1.713,1.713,0,0,1,1.844-.285,6.124,6.124,0,0,1,2.525,1.883,1.854,1.854,0,0,1-.123,2.555,8.844,8.844,0,0,1-1.309,1.254A2.378,2.378,0,0,1-552.165,892.025Z" transform="translate(569.782 -871.025)" fill="#707070"/>
    </g>
  </g>
</svg>
