<svg xmlns="http://www.w3.org/2000/svg" width="120" height="56" viewBox="0 0 120 56">
  <defs>
    <style>
      .cls-1 {
        fill: none;
      }

      .cls-2, .cls-3 {
        fill: #707070;
      }

      .cls-2, .cls-4 {
        font-size: 10px;
        font-family: NotoSansCJKkr-Regular, Noto Sans CJK KR;
        letter-spacing: -0.02em;
      }

      .cls-4, .cls-5 {
        fill: #00a7af;
      }
    </style>
  </defs>
  <g id="그룹_1264" data-name="그룹 1264" transform="translate(0 -583)">
    <g id="그룹_1260" data-name="그룹 1260" transform="translate(-1274 704)">
      <rect id="사각형_746" data-name="사각형 746" class="cls-1" width="120" height="56" transform="translate(1274 -121)"/>
      <g id="그룹_1258" data-name="그룹 1258" transform="translate(-1063 78.491)">
        <text id="홈" class="cls-2" transform="translate(2393 -155)"><tspan x="0" y="0">홈</tspan></text>
        <g id="그룹_1217" data-name="그룹 1217" transform="translate(207.365 -1813.343)">
          <g id="그룹_1215" data-name="그룹 1215" transform="translate(2183.989 1630.844)">
            <path id="패스_629" data-name="패스 629" class="cls-3" d="M2260.76,1727.26a2.023,2.023,0,0,0-1.292,1.038,1.776,1.776,0,0,0,.385,2.018v.005h1.466v1.621h-1.527v1.555H2258.2v-1.555h-1.527v-1.621h1.466v-.005a1.776,1.776,0,0,0,.385-2.018,2.023,2.023,0,0,0-1.292-1.038c-2.679-.846-4.72,2.192-3.539,4.6a4.57,4.57,0,0,0,2.2,1.867,7.121,7.121,0,0,1,1.9,1.324,5.2,5.2,0,0,1,1.144,1.579l.054.255a4.074,4.074,0,0,1,1.2-1.834,7.125,7.125,0,0,1,1.9-1.324,4.57,4.57,0,0,0,2.2-1.867C2265.48,1729.452,2263.439,1726.414,2260.76,1727.26Z" transform="translate(-2253.348 -1727.115)"/>
          </g>
          <g id="그룹_1216" data-name="그룹 1216" transform="translate(2177.635 1621.851)">
            <path id="패스_630" data-name="패스 630" class="cls-3" d="M2201.31,1631.031q-2.419-1.976-4.831-3.959-2.935-2.411-5.869-4.823a1.394,1.394,0,0,0-1.946,0c-1.079.88-2.151,1.77-3.228,2.653q-3.165,2.6-6.332,5.189c-.414.339-.833.671-1.237,1.021a.548.548,0,0,0,.085.947.569.569,0,0,0,.654-.131q2.805-2.3,5.612-4.6,2.53-2.073,5.061-4.145c.352-.288.363-.289.71-.006q1.522,1.239,3.035,2.488l6.819,5.594c.293.241.584.486.882.721a.526.526,0,0,0,.625.064.556.556,0,0,0,.285-.477A.721.721,0,0,0,2201.31,1631.031Z" transform="translate(-2177.635 -1621.852)"/>
            <path id="패스_631" data-name="패스 631" class="cls-3" d="M2227.15,1756.43q0-2.433,0-4.867c0-.128.006-.257-.007-.384a.52.52,0,0,0-1.039-.006c-.012.127-.006.256-.006.384q0,4.653,0,9.307a3.529,3.529,0,0,1-.058.677,1.158,1.158,0,0,1-.935.972,2.669,2.669,0,0,1-.581.053h-.1c-.144,0-.288,0-.432,0q-2.26,0-4.52,0h-7.059c-.566,0-1.133,0-1.7,0a1.261,1.261,0,0,1-1.342-1.188,3.868,3.868,0,0,1-.025-.553q0-4.632,0-9.265c0-.128.006-.257-.005-.384a.52.52,0,0,0-1.039,0,3.8,3.8,0,0,0-.007.384q0,2.412,0,4.824c0,1.565,0,3.131,0,4.7a3.339,3.339,0,0,0,.084.843,2.314,2.314,0,0,0,2.306,1.747c1.109.008,7.2.006,10.954,0q1.2,0,2.406,0h.4c.048,0,.1,0,.146,0h.2a2.284,2.284,0,0,0,1.693-.719,2.434,2.434,0,0,0,.664-1.781C2227.144,1759.59,2227.15,1758.01,2227.15,1756.43Z" transform="translate(-2205.725 -1739.677)"/>
          </g>
        </g>
      </g>
    </g>
    <g id="그룹_1261" data-name="그룹 1261" transform="translate(-1063 704)">
      <rect id="사각형_747" data-name="사각형 747" class="cls-1" width="120" height="56" transform="translate(1063 -121)"/>
      <g id="그룹_1259" data-name="그룹 1259" transform="translate(-1305 78.491)">
        <text id="홈-2" data-name="홈" class="cls-4" transform="translate(2424 -155)"><tspan x="0" y="0">홈</tspan></text>
        <g id="그룹_1218" data-name="그룹 1218" transform="translate(238.365 -1813.343)">
          <g id="그룹_1215-2" data-name="그룹 1215" transform="translate(2183.989 1630.844)">
            <path id="패스_629-2" data-name="패스 629" class="cls-5" d="M2260.76,1727.26a2.023,2.023,0,0,0-1.292,1.038,1.776,1.776,0,0,0,.385,2.018v.005h1.466v1.621h-1.527v1.555H2258.2v-1.555h-1.527v-1.621h1.466v-.005a1.776,1.776,0,0,0,.385-2.018,2.023,2.023,0,0,0-1.292-1.038c-2.679-.846-4.72,2.192-3.539,4.6a4.57,4.57,0,0,0,2.2,1.867,7.121,7.121,0,0,1,1.9,1.324,5.2,5.2,0,0,1,1.144,1.579l.054.255a4.074,4.074,0,0,1,1.2-1.834,7.125,7.125,0,0,1,1.9-1.324,4.57,4.57,0,0,0,2.2-1.867C2265.48,1729.452,2263.439,1726.414,2260.76,1727.26Z" transform="translate(-2253.348 -1727.115)"/>
          </g>
          <g id="그룹_1216-2" data-name="그룹 1216" transform="translate(2177.635 1621.851)">
            <path id="패스_630-2" data-name="패스 630" class="cls-5" d="M2201.31,1631.031q-2.419-1.976-4.831-3.959-2.935-2.411-5.869-4.823a1.394,1.394,0,0,0-1.946,0c-1.079.88-2.151,1.77-3.228,2.653q-3.165,2.6-6.332,5.189c-.414.339-.833.671-1.237,1.021a.548.548,0,0,0,.085.947.569.569,0,0,0,.654-.131q2.805-2.3,5.612-4.6,2.53-2.073,5.061-4.145c.352-.288.363-.289.71-.006q1.522,1.239,3.035,2.488l6.819,5.594c.293.241.584.486.882.721a.526.526,0,0,0,.625.064.556.556,0,0,0,.285-.477A.721.721,0,0,0,2201.31,1631.031Z" transform="translate(-2177.635 -1621.852)"/>
            <path id="패스_631-2" data-name="패스 631" class="cls-5" d="M2227.15,1756.43q0-2.433,0-4.867c0-.128.006-.257-.007-.384a.52.52,0,0,0-1.039-.006c-.012.127-.006.256-.006.384q0,4.653,0,9.307a3.529,3.529,0,0,1-.058.677,1.158,1.158,0,0,1-.935.972,2.669,2.669,0,0,1-.581.053h-.1c-.144,0-.288,0-.432,0q-2.26,0-4.52,0h-7.059c-.566,0-1.133,0-1.7,0a1.261,1.261,0,0,1-1.342-1.188,3.868,3.868,0,0,1-.025-.553q0-4.632,0-9.265c0-.128.006-.257-.005-.384a.52.52,0,0,0-1.039,0,3.8,3.8,0,0,0-.007.384q0,2.412,0,4.824c0,1.565,0,3.131,0,4.7a3.339,3.339,0,0,0,.084.843,2.314,2.314,0,0,0,2.306,1.747c1.109.008,7.2.006,10.954,0q1.2,0,2.406,0h.4c.048,0,.1,0,.146,0h.2a2.284,2.284,0,0,0,1.693-.719,2.434,2.434,0,0,0,.664-1.781C2227.144,1759.59,2227.15,1758.01,2227.15,1756.43Z" transform="translate(-2205.725 -1739.677)"/>
          </g>
        </g>
      </g>
    </g>
  </g>
</svg>
