<svg xmlns="http://www.w3.org/2000/svg" width="165" height="121" viewBox="0 0 165 121">
  <g id="그룹_1242" data-name="그룹 1242" transform="translate(-76 -226)">
    <text id="내역이_없습니다." data-name="내역이 없습니다." transform="translate(104 322)" fill="#b1b1b1" font-size="16" font-family="NotoSansCJKkr-Regular, Noto Sans CJK KR" letter-spacing="-0.02em"><tspan x="0" y="0">내역이 없습니다.</tspan></text>
    <text id="나에게_맞는_병원을_확인해_보세요." data-name="나에게 맞는 병원을 확인해 보세요." transform="translate(76 343)" fill="#b1b1b1" font-size="12" font-family="NotoSansCJKkr-Regular, Noto Sans CJK KR" letter-spacing="-0.02em"><tspan x="0" y="0">나에게 맞는 병원을 확인해 보세요.</tspan></text>
    <g id="그룹_1082" data-name="그룹 1082" transform="translate(-22)">
      <g id="구성_요소_3" data-name="구성 요소 3" transform="translate(140 226)">
        <path id="패스_552" data-name="패스 552" d="M633.507,1502.527c-.417-.423-1.06-1.051-2.349-2.311l-2.19-2.223a13.679,13.679,0,0,0,2.1-7.251,13.335,13.335,0,1,0-26.667,0,13.564,13.564,0,0,0,4.119,9.789,13.2,13.2,0,0,0,9.215,3.745,11.752,11.752,0,0,0,5.619-1.353c.312.38.79.846,1.4,1.446a.938.938,0,0,0-.355.777,2.937,2.937,0,0,1-2.857,3.094h-40.19a2.828,2.828,0,0,1-2.857-2.9v-50.271a2.952,2.952,0,0,1,2.857-2.9h31.619v6.767a4.812,4.812,0,0,0,4.762,4.833H624.4v12.375a.962.962,0,0,0,.952.967.907.907,0,0,0,.953-.967v-13.921a.886.886,0,0,0-.286-.677l-10.857-11.021a.858.858,0,0,0-.667-.29H581.349a4.752,4.752,0,0,0-4.762,4.833v47.5c-7.065,1.238-11.427,2.932-11.428,4.8v0c0,3.791,17.9,6.864,39.991,6.865s40-3.072,40.009-6.862v0C645.159,1505.479,640.708,1503.768,633.507,1502.527Zm-.348,5.133a1.715,1.715,0,0,1-2.571,0h0l-5.957-6.046h0l-1.051-1.125-1,.7a11.195,11.195,0,0,1-9.891.005q-.249-.122-.493-.257c-.195-.108-.385-.223-.573-.341-.124-.079-.248-.158-.37-.242q-.457-.314-.881-.669-.212-.178-.415-.365-.406-.375-.776-.789-.184-.206-.36-.421a11.669,11.669,0,0,1,0-14.737q.175-.215.36-.421.37-.412.776-.788.2-.187.415-.365.424-.356.881-.67t.942-.583q.243-.134.493-.257a11.34,11.34,0,0,1,1.555-.625,11.184,11.184,0,0,1,3.389-.524,11.634,11.634,0,0,1,8.762,19.045l3.772,3.828,2.99,3.035a1.609,1.609,0,0,1,.532,1.3A1.879,1.879,0,0,1,633.158,1507.66Z" transform="translate(-565.158 -1450.235)" fill="#b1b1b1"/>
        <path id="패스_553" data-name="패스 553" d="M611.05,1516.3a1.006,1.006,0,0,0,0,2.013h14.19a1.006,1.006,0,0,0,0-2.013Z" transform="translate(-588.34 -1483.474)" fill="#b1b1b1"/>
        <path id="패스_554" data-name="패스 554" d="M611.05,1487.224h14.19a1.006,1.006,0,0,0,0-2.013H611.05a1.006,1.006,0,0,0,0,2.013Z" transform="translate(-588.34 -1467.832)" fill="#b1b1b1"/>
        <path id="패스_555" data-name="패스 555" d="M634.3,1501.762a.951.951,0,0,0-1.006-1.006H611.05a1.006,1.006,0,1,0,0,2.013h22.242A1.008,1.008,0,0,0,634.3,1501.762Z" transform="translate(-588.546 -1475.653)" fill="#b1b1b1"/>
        <path id="패스_556" data-name="패스 556" d="M672.335,1520.29a8.716,8.716,0,1,0,.511,1.643A8.776,8.776,0,0,0,672.335,1520.29Zm-1.324,3.409a6.743,6.743,0,1,1-6.744-6.744,6.742,6.742,0,0,1,6.744,6.744Z" transform="translate(-611.883 -1483.219)" fill="#b1b1b1"/>
      </g>
    </g>
  </g>
</svg>
