<svg xmlns="http://www.w3.org/2000/svg" width="120" height="56" viewBox="0 0 120 56">
  <defs>
    <style>
      .cls-1 {
        fill: none;
      }

      .cls-2, .cls-4 {
        fill: #707070;
      }

      .cls-2 {
        font-size: 10px;
        font-family: NotoSansCJKkr-Regular, Noto Sans CJK KR;
        letter-spacing: -0.02em;
      }

      .cls-3 {
        fill: rgba(255,255,255,0);
      }
    </style>
  </defs>
  <g id="그룹_1257" data-name="그룹 1257" transform="translate(-1532 162)">
    <rect id="사각형_133" data-name="사각형 133" class="cls-1" width="120" height="56" transform="translate(1532 -162)"/>
    <text id="병원찾기" class="cls-2" transform="translate(1574 -117.509)"><tspan x="0" y="0">병원찾기</tspan></text>
    <g id="그룹_1230" data-name="그룹 1230" transform="translate(18 92)">
      <rect id="사각형_729" data-name="사각형 729" class="cls-3" width="24" height="24" transform="translate(1562 -246)"/>
      <g id="그룹_1229" data-name="그룹 1229" transform="translate(509.301 -1711.089)">
        <path id="패스_636" data-name="패스 636" class="cls-4" d="M1064.8,1488.894a1.929,1.929,0,0,1-1.3-.575c-2.731-2.582-6.042-6.186-7.412-11.175a9.839,9.839,0,0,1,.668-7.206,9.07,9.07,0,0,1,5.444-4.446,8.914,8.914,0,0,1,7.777,1.209,9.527,9.527,0,0,1,3.992,7.4v.021a14.084,14.084,0,0,1-2.24,7.366,29.665,29.665,0,0,1-5.419,6.694A2.216,2.216,0,0,1,1064.8,1488.894Zm.072-22.752a8.068,8.068,0,0,0-2.365.357h0c-4.411,1.351-6.684,5.71-5.406,10.367,1.3,4.737,4.488,8.2,7.12,10.689.366.346.739.455,1.367-.137a28.628,28.628,0,0,0,5.231-6.457,13.1,13.1,0,0,0,2.1-6.814,8.48,8.48,0,0,0-3.544-6.582A7.819,7.819,0,0,0,1064.871,1466.142Zm-.042,11.966a3.863,3.863,0,1,1,3.863-3.863A3.867,3.867,0,0,1,1064.829,1478.108Zm0-6.674a2.811,2.811,0,1,0,2.811,2.811A2.814,2.814,0,0,0,1064.829,1471.434Z"/>
      </g>
    </g>
  </g>
</svg>
