<svg id="ic_일반검진" xmlns="http://www.w3.org/2000/svg" width="56" height="56" viewBox="0 0 56 56">
  <defs>
    <style>
      .cls-1 {
        fill: #f1f1f1;
      }

      .cls-2 {
        fill: #3fc7ef;
      }

      .cls-3 {
        fill: #3d33c1;
      }
    </style>
  </defs>
  <circle id="타원_6" data-name="타원 6" class="cls-1" cx="28" cy="28" r="28"/>
  <g id="그룹_873" data-name="그룹 873" transform="translate(16 16.984)">
    <path id="패스_413" data-name="패스 413" class="cls-2" d="M230.962,730.076a5.229,5.229,0,1,0,5.227,5.229A5.23,5.23,0,0,0,230.962,730.076Zm2.431,6.225H231.96v1.435h-2V736.3H228.53v-1.994h1.434v-1.435h2v1.435h1.434Z" transform="translate(-212.19 -719.621)"/>
    <path id="패스_414" data-name="패스 414" class="cls-3" d="M219.377,738.135a.511.511,0,0,1-.267-.075l-.041-.028a27.355,27.355,0,0,1-11.1-12.791,7.139,7.139,0,0,1,.454-5.657,6.162,6.162,0,0,1,3.549-2.665,6.767,6.767,0,0,1,7.411,2.576,6.839,6.839,0,0,1,7.427-2.572,6.164,6.164,0,0,1,3.533,2.662,7.107,7.107,0,0,1,.468,5.614c0,.017-.1.345-.312.9a.507.507,0,0,1-.944-.367c.2-.5.276-.792.277-.8a6.146,6.146,0,0,0-.36-4.832,5.159,5.159,0,0,0-2.917-2.2,5.953,5.953,0,0,0-6.743,2.742.506.506,0,0,1-.428.234h0a.508.508,0,0,1-.428-.234,5.965,5.965,0,0,0-6.729-2.748,5.229,5.229,0,0,0-2.939,2.216,6.161,6.161,0,0,0-.352,4.827,26.879,26.879,0,0,0,10.454,12.1c.393-.233.787-.478,1.175-.734a.506.506,0,1,1,.558.844c-.477.315-.965.616-1.451.9l-.019.012a.515.515,0,0,1-.272.078Z" transform="translate(-207.605 -716.639)"/>
    <path id="패스_415" data-name="패스 415" class="cls-3" d="M212.453,725.672a.449.449,0,0,1-.412-.271,3.581,3.581,0,0,1,.026-3.469,2.7,2.7,0,0,1,2.976-1.541.449.449,0,0,1-.21.872,1.785,1.785,0,0,0-1.979,1.1.45.45,0,0,1-.045.073,2.681,2.681,0,0,0,.056,2.605.449.449,0,0,1-.233.59A.459.459,0,0,1,212.453,725.672Z" transform="translate(-209.219 -718.122)"/>
  </g>
</svg>
