<svg id="ic_지하철" xmlns="http://www.w3.org/2000/svg" width="56" height="56" viewBox="0 0 56 56">
  <defs>
    <style>
      .cls-1 {
        fill: #f1f1f1;
      }

      .cls-2 {
        fill: #3d33c1;
      }

      .cls-3 {
        fill: #3fc7ef;
      }
    </style>
  </defs>
  <circle id="타원_78" data-name="타원 78" class="cls-1" cx="28" cy="28" r="28"/>
  <g id="그룹_876" data-name="그룹 876" transform="translate(18 15.97)">
    <path id="패스_416" data-name="패스 416" class="cls-2" d="M47.352,928.977a3.815,3.815,0,0,1-2.128-2.86,4.675,4.675,0,0,1-.038-.729q0-5.9,0-11.793a3.736,3.736,0,0,1,3.851-3.867q5.146-.006,10.291,0a3.74,3.74,0,0,1,3.8,3.806c0,3.943-.007,7.887,0,11.83a3.781,3.781,0,0,1-2.018,3.521c-.041.023-.08.051-.144.092.067.082.119.159.184.225q1.384,1.387,2.771,2.771c.274.273.31.479.092.677-.246.223-.447.131-.658-.082-1.012-1.025-2.038-2.037-3.05-3.062a.716.716,0,0,0-.575-.225q-4.266.023-8.533.018c-.916,0-1.831-.02-2.746-.007a.7.7,0,0,0-.428.2c-1.027,1.01-2.043,2.032-3.061,3.051-.281.281-.476.313-.686.1-.194-.192-.155-.425.107-.686q1.387-1.384,2.771-2.771C47.219,929.135,47.271,929.07,47.352,928.977Zm14.964-9.441c0-2.026.008-4.052,0-6.078a2.8,2.8,0,0,0-2.9-2.915c-.4-.005-.805,0-1.208,0-3.075,0-6.151-.006-9.226,0a2.774,2.774,0,0,0-2.97,2.806q-.029,6.17,0,12.339a2.739,2.739,0,0,0,2.824,2.792q5.309.015,10.618,0a3.241,3.241,0,0,0,.865-.117,2.749,2.749,0,0,0,2-2.784C62.325,923.564,62.316,921.55,62.317,919.536Z" transform="translate(-44.161 -909.725)"/>
    <g id="그룹_874" data-name="그룹 874" transform="translate(3.538 13.661)">
      <path id="패스_417" data-name="패스 417" class="cls-2" d="M57.588,956.225a1.431,1.431,0,1,0,1.431,1.431A1.431,1.431,0,0,0,57.588,956.225Zm0,2.167a.736.736,0,1,1,.736-.736A.736.736,0,0,1,57.588,958.393Z" transform="translate(-56.157 -956.225)"/>
    </g>
    <g id="그룹_875" data-name="그룹 875" transform="translate(13.575 13.661)">
      <path id="패스_418" data-name="패스 418" class="cls-2" d="M91.616,956.225a1.431,1.431,0,1,0,1.431,1.431A1.431,1.431,0,0,0,91.616,956.225Zm0,2.167a.736.736,0,1,1,.736-.736A.736.736,0,0,1,91.616,958.393Z" transform="translate(-90.185 -956.225)"/>
    </g>
    <rect id="사각형_604" data-name="사각형 604" class="cls-3" width="3.907" height="0.607" rx="0.304" transform="translate(8.047 2.236)"/>
    <path id="패스_419" data-name="패스 419" class="cls-2" d="M67.166,930.738H55.772a1.741,1.741,0,0,1-1.881-1.549v-3a1.741,1.741,0,0,1,1.881-1.549H67.166a1.741,1.741,0,0,1,1.881,1.549v3A1.741,1.741,0,0,1,67.166,930.738Zm-11.394-5.491a1.057,1.057,0,0,0-1.142.94v3a1.057,1.057,0,0,0,1.142.94H67.166a1.058,1.058,0,0,0,1.142-.94v-3a1.058,1.058,0,0,0-1.142-.94Z" transform="translate(-51.469 -920.102)"/>
  </g>
</svg>
