<svg id="ic_주차가능" xmlns="http://www.w3.org/2000/svg" width="56" height="56" viewBox="0 0 56 56">
  <defs>
    <style>
      .cls-1 {
        fill: #f1f1f1;
      }

      .cls-2 {
        fill: #3d33c1;
      }

      .cls-3 {
        fill: #3fc7ef;
      }
    </style>
  </defs>
  <circle id="타원_43" data-name="타원 43" class="cls-1" cx="28" cy="28" r="28"/>
  <g id="그룹_468" data-name="그룹 468" transform="translate(16 16)">
    <path id="패스_43" data-name="패스 43" class="cls-2" d="M376.091,764.723a12.581,12.581,0,0,1,4.447.894.617.617,0,0,1,.458.658.609.609,0,0,1-.857.453,16.59,16.59,0,0,0-2.24-.626,10.829,10.829,0,0,0-12.658,11.214,10.825,10.825,0,0,0,21.1,2.769,10.624,10.624,0,0,0-.226-7.349.983.983,0,0,1-.054-.539.512.512,0,0,1,.524-.391.534.534,0,0,1,.564.382,19.251,19.251,0,0,1,.7,2.421,11.691,11.691,0,0,1-2.5,9.7,11.493,11.493,0,0,1-7.264,4.245,11.986,11.986,0,1,1-3.9-23.652C374.817,764.8,375.457,764.78,376.091,764.723Z" transform="translate(-364.049 -764.723)"/>
    <path id="패스_44" data-name="패스 44" class="cls-3" d="M387.068,787.642q0-2.067,0-4.134c0-.463.16-.626.615-.627.9,0,1.8,0,2.7,0a3.343,3.343,0,0,1,.167,6.684c-.771.013-1.542.008-2.314,0-.174,0-.234.044-.231.226.01.681,0,1.363,0,2.044,0,.408-.152.606-.462.607s-.474-.208-.474-.6Q387.067,789.742,387.068,787.642Zm.948.991c.388,0,.754,0,1.12,0a14.016,14.016,0,0,0,1.571-.021,2.391,2.391,0,0,0,2.11-2.576,2.423,2.423,0,0,0-2.428-2.217c-.711,0-1.423.006-2.134-.005-.2,0-.255.048-.254.25.009,1.445,0,2.89,0,4.336C388,788.465,388.011,788.531,388.015,788.633Z" transform="translate(-377.745 -774.922)"/>
  </g>
</svg>
