<svg id="ic_6대암검진" xmlns="http://www.w3.org/2000/svg" width="56" height="56" viewBox="0 0 56 56">
  <defs>
    <style>
      .cls-1 {
        fill: #f1f1f1;
      }

      .cls-2 {
        fill: #3d33c1;
      }

      .cls-3 {
        fill: #3fc7ef;
      }
    </style>
  </defs>
  <circle id="타원_44" data-name="타원 44" class="cls-1" cx="28" cy="28" r="28"/>
  <g id="그룹_475" data-name="그룹 475" transform="translate(19.537 16)">
    <path id="패스_53" data-name="패스 53" class="cls-2" d="M283.541,658.22a4.744,4.744,0,0,1-.086,3.536,7.916,7.916,0,0,1-1.174,2.017c-.091.127-.175.258-.266.385a.346.346,0,0,1-.5.113.373.373,0,0,1-.066-.525c.318-.477.655-.942.965-1.424a4.73,4.73,0,0,0,.541-1.267.489.489,0,0,1-.5-.18,2.074,2.074,0,0,0-2.905.046.434.434,0,0,1-.482.12,8.625,8.625,0,0,0,.381.929,14.235,14.235,0,0,0,.765,1.215q1.675,2.414,3.364,4.82l3.261,4.667q.581.833,1.162,1.667a.386.386,0,0,1-.041.556l-2.011,2.079c-.254.262-.463.236-.669-.063q-1-1.451-2.007-2.9-1.142-1.646-2.284-3.292-.891-1.282-1.784-2.562-.691-.994-1.378-1.991c-.288-.416-.581-.829-.863-1.25a5.369,5.369,0,0,1-.885-3.5,5.251,5.251,0,0,1,.35-1.534,4.965,4.965,0,0,1,2.09-2.549,4.883,4.883,0,0,1,4.085-.425,5.862,5.862,0,0,1,.924.452,4.3,4.3,0,0,1,1.636,1.607,4.217,4.217,0,0,1,.6,1.394c.068.334.16.666.194,1a5.281,5.281,0,0,1-.886,3.581c-.419.624-.854,1.237-1.284,1.854a.347.347,0,0,1-.481.082.341.341,0,0,1-.088-.489c.159-.249.337-.484.5-.729.334-.493.7-.966.991-1.486a4.632,4.632,0,0,0,.248-4.06,4.257,4.257,0,0,0-1.357-1.864C283.587,658.245,283.572,658.238,283.541,658.22Zm-5.066.013c-.022.015-.045.03-.066.047a4.167,4.167,0,0,0-1.105,1.361,4.787,4.787,0,0,0-.446,3.3,5.222,5.222,0,0,0,.91,1.925c.744,1.054,1.467,2.124,2.2,3.185.47.676.948,1.345,1.418,2.021.541.777,1.076,1.557,1.616,2.335q1.037,1.5,2.077,2.989c.193.277.387.554.592.848.53-.55,1.047-1.082,1.556-1.62a.186.186,0,0,0-.008-.169q-.372-.563-.759-1.115c-.309-.442-.627-.877-.936-1.319q-1.015-1.448-2.024-2.9l-2.267-3.243c-.536-.767-1.062-1.54-1.609-2.3a7,7,0,0,1-1.263-2.568,5.1,5.1,0,0,1-.117-1.941A7.866,7.866,0,0,1,278.475,658.233Zm4.623,2.275c.021-.329.052-.613.053-.9a2.135,2.135,0,0,0-2.373-2.211,2.291,2.291,0,0,0-1.8,3.068A2.825,2.825,0,0,1,283.1,660.508Z" transform="translate(-273.949 -653.158)"/>
    <path id="패스_54" data-name="패스 54" class="cls-2" d="M275.507,680.216c.245-.34.494-.681.741-1.025l2.322-3.236q.271-.378.54-.758a.368.368,0,0,1,.534-.131.358.358,0,0,1,.043.523q-.768,1.076-1.542,2.149l-2.048,2.851c-.089.123-.174.25-.268.37a.342.342,0,0,1-.55.042q-1.061-1.054-2.114-2.116a.345.345,0,0,1-.022-.447c.408-.557.819-1.111,1.222-1.671q1.44-2.007,2.875-4.018c.038-.054.08-.1.119-.157a.35.35,0,0,1,.508-.112.333.333,0,0,1,.061.5c-.215.308-.438.61-.658.914q-.821,1.138-1.642,2.275c-.383.527-.771,1.051-1.154,1.578-.182.251-.355.508-.536.76a.118.118,0,0,0,.011.182c.506.5,1.009,1,1.513,1.507C275.469,680.2,275.481,680.206,275.507,680.216Z" transform="translate(-273.072 -657.119)"/>
    <path id="패스_55" data-name="패스 55" class="cls-3" d="M295.287,653.389H293.6V651.7h-2.344v1.685h-1.685v2.342h1.685v1.685H293.6v-1.685h1.685Z" transform="translate(-277.421 -651.704)"/>
  </g>
</svg>
