<svg id="ic_생애전환기검진" xmlns="http://www.w3.org/2000/svg" width="56" height="56" viewBox="0 0 56 56">
  <defs>
    <style>
      .cls-1 {
        fill: #f1f1f1;
      }

      .cls-2 {
        fill: #3d33c1;
      }

      .cls-3 {
        fill: #3fc7ef;
      }
    </style>
  </defs>
  <circle id="타원_45" data-name="타원 45" class="cls-1" cx="28" cy="28" r="28"/>
  <g id="그룹_446" data-name="그룹 446" transform="translate(16 19.991)">
    <path id="패스_23" data-name="패스 23" class="cls-2" d="M336.094,671.543a.382.382,0,1,1,0-.764h3.749a1,1,0,0,0,.991-1.009.969.969,0,0,0-.816-1.019H337a.38.38,0,0,1-.236-.081l-1.848-1.449h-2.378l-1.757,1.128a.385.385,0,0,1-.206.06h-1.827a.382.382,0,1,1,0-.764h1.715l1.757-1.128a.381.381,0,0,1,.206-.061h2.622a.381.381,0,0,1,.236.082l1.848,1.448h2.922a.414.414,0,0,1,.072.007,1.7,1.7,0,0,1,1.467,1.818,1.767,1.767,0,0,1-1.719,1.731Z" transform="translate(-323.784 -660.35)"/>
    <path id="패스_24" data-name="패스 24" class="cls-2" d="M340.153,678.351h-11.4a.382.382,0,1,1,0-.764h11.324l6.214-2.622c1.041-.717.675-1.462.63-1.546-.554-1.038-1.268-.685-1.3-.669l-2.941,1.057a.382.382,0,0,1-.258-.719l2.895-1.037a1.711,1.711,0,0,1,2.273,1,1.934,1.934,0,0,1-.9,2.568.32.32,0,0,1-.064.035l-6.32,2.668A.386.386,0,0,1,340.153,678.351Z" transform="translate(-323.784 -663.023)"/>
    <g id="그룹_445" data-name="그룹 445" transform="translate(0 6.434)">
      <path id="패스_25" data-name="패스 25" class="cls-3" d="M320.122,667.85h2.912V676.3h-2.912" transform="translate(-319.74 -667.468)"/>
      <path id="패스_26" data-name="패스 26" class="cls-2" d="M322.666,676.317h-2.912a.382.382,0,1,1,0-.764h2.529v-7.688h-2.529a.382.382,0,1,1,0-.764h2.912a.382.382,0,0,1,.382.382v8.453A.382.382,0,0,1,322.666,676.317Z" transform="translate(-319.372 -667.1)"/>
    </g>
    <path id="패스_27" data-name="패스 27" class="cls-3" d="M353.719,656.387h-1.914v-1.914h-2.662v1.914h-1.914v2.66h1.914v1.914h2.662v-1.914h1.914Z" transform="translate(-333.034 -654.473)"/>
  </g>
</svg>
