<svg xmlns="http://www.w3.org/2000/svg" width="120" height="56" viewBox="0 0 120 56">
  <defs>
    <style>
      .cls-1 {
        fill: none;
      }

      .cls-2, .cls-4 {
        fill: #707070;
      }

      .cls-2 {
        font-size: 10px;
        font-family: NotoSansCJKkr-Regular, Noto Sans CJK KR;
        letter-spacing: -0.02em;
      }

      .cls-3 {
        fill: rgba(255,255,255,0);
      }
    </style>
  </defs>
  <g id="그룹_1256" data-name="그룹 1256" transform="translate(-1652 162)">
    <rect id="사각형_133" data-name="사각형 133" class="cls-1" width="120" height="56" transform="translate(1652 -162)"/>
    <text id="내_정보" data-name="내 정보" class="cls-2" transform="translate(1697 -117.509)"><tspan x="0" y="0">내 정보</tspan></text>
    <g id="그룹_1227" data-name="그룹 1227" transform="translate(33 88)">
      <rect id="사각형_729" data-name="사각형 729" class="cls-3" width="24" height="24" transform="translate(1667 -242)"/>
      <g id="그룹_1226" data-name="그룹 1226" transform="translate(-864.034 -1936.711)">
        <path id="패스_632" data-name="패스 632" class="cls-4" d="M2670.239,1792.51c-1.223,0-2.446-.008-3.669,0-.442,0-.784-.137-.771-.611.012-.436.354-.579.764-.579q3.642,0,7.283,0c.413,0,.779.1.786.6.008.523-.362.584-.779.582C2672.648,1792.506,2671.443,1792.51,2670.239,1792.51Z" transform="translate(-119.6 -83.08)"/>
        <path id="패스_633" data-name="패스 633" class="cls-4" d="M2682.675,1730.031c-.99,0-1.98,0-2.97,0-.416,0-.738-.138-.74-.588s.332-.6.738-.6h5.885c.412,0,.722.143.728.6.006.476-.312.587-.726.583C2684.618,1730.025,2683.646,1730.031,2682.675,1730.031Z" transform="translate(-131.285 -27.634)"/>
        <path id="패스_634" data-name="패스 634" class="cls-4" d="M2707.438,1855.553c-.5,0-1,0-1.506,0a.609.609,0,0,1-.688-.6c-.009-.408.274-.584.681-.581,1.021.007,2.043,0,3.065,0,.376,0,.632.144.651.548.02.438-.263.611-.644.627-.519.022-1.039.005-1.559.005Z" transform="translate(-154.608 -139.031)"/>
        <g id="그룹_1225" data-name="그룹 1225" transform="translate(2531.034 1697.711)">
          <path id="패스_635" data-name="패스 635" class="cls-4" d="M2549.118,1714.453a7.807,7.807,0,0,0-4.818-5.241c-.366-.162-.75-.285-1.156-.437a5.934,5.934,0,1,0-5.954.016,9.932,9.932,0,0,0-3.353,1.71,7,7,0,0,0-2.8,5.2c-.025.433.117.79.59.8.434.007.584-.306.6-.732a5.493,5.493,0,0,1,2.042-4.072,9.012,9.012,0,0,1,7.79-1.916,7.69,7.69,0,0,1,4.813,2.749,5.2,5.2,0,0,1,1.237,3.263c.005.417.187.727.63.708.408-.017.56-.306.555-.714A5.467,5.467,0,0,0,2549.118,1714.453Zm-8.976-6.12a4.714,4.714,0,0,1,.047-9.428,4.714,4.714,0,1,1-.047,9.428Z" transform="translate(-2531.034 -1697.711)"/>
        </g>
      </g>
    </g>
  </g>
</svg>
