<svg id="구성_요소" data-name="구성 요소" xmlns="http://www.w3.org/2000/svg" width="134.142" height="39.454" viewBox="0 0 134.142 39.454">
  <g id="그룹_1075" data-name="그룹 1075" transform="translate(-355.729 157.734)">
    <g id="그룹_1074" data-name="그룹 1074">
      <path id="패스_558" data-name="패스 558" d="M396.472-155.219v12.38c0,.387.139.525.526.525a76.88,76.88,0,0,0,10.555-.663c.443-.055.746.249.829.746.056.5-.137.967-.58,1.022a83.7,83.7,0,0,1-11.467.636c-1.438,0-1.908-.442-1.908-1.852v-12.794c0-.58.5-.829,1.023-.829S396.472-155.8,396.472-155.219Zm16.056-1.686v7.71h3.509c.5,0,.718.415.718.885,0,.5-.22.912-.718.912h-3.509v12.49c0,.58-.5.829-1.023.829-.5,0-.995-.249-.995-.829v-22c0-.58.5-.829.995-.829C412.03-157.734,412.528-157.485,412.528-156.9Z" fill="#fff"/>
      <path id="패스_559" data-name="패스 559" d="M430.516-154.113v5.084c0,1.41-.47,1.852-1.907,1.852h-6.576c-.387,0-.526.138-.526.5v4.532c0,.359.139.5.526.5a73.252,73.252,0,0,0,10.666-.663c.442-.055.746.277.829.746.056.5-.138.968-.58,1.023a84.246,84.246,0,0,1-11.524.635c-1.436,0-1.906-.442-1.906-1.851v-5.25c0-1.41.47-1.852,1.906-1.852H428c.359,0,.525-.138.525-.525v-4.338c0-.36-.166-.5-.525-.5h-7.793c-.47,0-.691-.387-.691-.884,0-.47.221-.857.691-.857h8.4C430.046-155.965,430.516-155.523,430.516-154.113Zm7.157-2.792v7.71h3.51c.5,0,.718.415.718.885,0,.5-.221.912-.718.912h-3.51v12.49c0,.58-.5.829-1.022.829-.5,0-.995-.249-.995-.829v-22c0-.58.5-.829.995-.829C437.175-157.734,437.673-157.485,437.673-156.9Z" fill="#fff"/>
      <path id="패스_560" data-name="패스 560" d="M464.172-156.9v12.574c0,.58-.5.829-.994.829-.525,0-.995-.249-.995-.829v-5.637h-6.66c-.8,2.072-3.178,3.343-9.561,6.272a.9.9,0,0,1-1.161-.469.844.844,0,0,1,.3-1.216c7.986-3.592,8.788-4.283,8.788-7.157V-154c0-.387-.139-.525-.525-.525h-7.71c-.5,0-.718-.387-.718-.856,0-.5.221-.885.718-.885h8.318c1.437,0,1.906.442,1.906,1.852v1.962c0,.276-.027.525-.027.746h6.328v-5.2c0-.58.47-.829.995-.829C463.675-157.734,464.172-157.485,464.172-156.9Zm-1.906,14.813c1.437,0,1.906.441,1.906,1.851v5.72c0,1.409-.469,1.851-1.906,1.851H450.3c-1.436,0-1.906-.442-1.906-1.851v-5.72c0-1.41.47-1.851,1.906-1.851Zm-11.854,2.238v4.946c0,.387.137.525.524.525h10.722c.359,0,.525-.138.525-.525v-4.946c0-.387-.166-.526-.525-.526H450.936C450.549-140.38,450.412-140.241,450.412-139.854Z" fill="#fff"/>
      <path id="패스_561" data-name="패스 561" d="M483.6-155.136c0,.47-.22.884-.691.884h-5.084v1.962a5.394,5.394,0,0,0,2.1,4.5c1.245,1.05,2.6,2.1,3.483,2.735a.85.85,0,0,1,.166,1.271.882.882,0,0,1-1.272.194c-.856-.608-1.962-1.465-3.233-2.515-1.465-1.188-2.1-2.072-2.238-2.68H476.8c-.138.635-.8,1.547-2.265,2.736-1.244,1.05-2.543,2.045-3.676,2.846a.872.872,0,0,1-1.243-.193.856.856,0,0,1,.138-1.3c1.215-.884,2.68-2.018,3.923-3.068a5.389,5.389,0,0,0,2.1-4.5v-1.99h-5.251c-.47,0-.69-.414-.69-.884,0-.5.22-.884.69-.884h12.38C483.378-156.02,483.6-155.633,483.6-155.136Zm-8.069,14.591v5.416c0,.359.139.5.525.5h13.1c.5,0,.718.415.718.885s-.221.884-.718.884H475.391c-1.437,0-1.907-.442-1.907-1.852v-5.83c0-.581.5-.829,1.022-.829S475.529-141.126,475.529-140.545Zm13.624-16.36v16.857c0,.581-.5.829-1,.829-.526,0-1.023-.248-1.023-.829V-156.9c0-.58.5-.829,1.023-.829C488.655-157.734,489.153-157.485,489.153-156.9Z" fill="#fff"/>
    </g>
  </g>
  <g id="그룹_1076" data-name="그룹 1076" transform="translate(-355.729 157.734)">
    <path id="패스_562" data-name="패스 562" d="M399.649-126.5v5.8c0,.436-.158.585-.5.585-.251,0-.372-.065-.6-.474l-2.723-4.628a3.538,3.538,0,0,1-.325-.706v5.566c0,.186-.158.27-.325.27a.282.282,0,0,1-.317-.27v-5.8c0-.437.158-.586.5-.586.251,0,.362.065.6.474l2.722,4.628a4.049,4.049,0,0,1,.325.706V-126.5a.281.281,0,0,1,.316-.269C399.491-126.764,399.649-126.681,399.649-126.5Z" fill="#fff"/>
    <path id="패스_563" data-name="패스 563" d="M404.891-123.447v3.1c0,.186-.157.26-.315.26s-.317-.074-.317-.26v-.456h-.008a1.24,1.24,0,0,1-.531.52,2.1,2.1,0,0,1-1.012.233c-1.023,0-1.663-.53-1.663-1.431v-.093c0-.79.51-1.394,1.774-1.394h1.4v-.344c0-.78-.362-1.152-1.179-1.152a2.378,2.378,0,0,0-1.3.4.27.27,0,0,1-.391-.1.279.279,0,0,1,.074-.4,2.989,2.989,0,0,1,1.636-.484C404.2-125.046,404.891-124.432,404.891-123.447Zm-3.186,1.9v.055c0,.539.371.874,1.049.874a1.905,1.905,0,0,0,.9-.186,1.014,1.014,0,0,0,.576-.92v-.7h-1.395C402.011-122.425,401.7-122.053,401.7-121.551Z" fill="#fff"/>
    <path id="패스_564" data-name="패스 564" d="M409.047-124.962a.274.274,0,0,1,.149.363c-.046.194-.176.3-.344.26a2.408,2.408,0,0,0-.473-.066c-.8,0-1.264.679-1.264,1.6v2.444c0,.195-.158.279-.335.279s-.334-.084-.334-.279v-4.349c0-.186.158-.269.325-.269s.325.083.325.269v.651h.009a1.5,1.5,0,0,1,1.4-.986A1.518,1.518,0,0,1,409.047-124.962Z" fill="#fff"/>
    <path id="패스_565" data-name="패스 565" d="M413.722-123.447v3.1c0,.186-.157.26-.315.26s-.317-.074-.317-.26v-.456h-.008a1.234,1.234,0,0,1-.531.52,2.1,2.1,0,0,1-1.012.233c-1.023,0-1.663-.53-1.663-1.431v-.093c0-.79.51-1.394,1.774-1.394h1.4v-.344c0-.78-.362-1.152-1.179-1.152a2.378,2.378,0,0,0-1.3.4.27.27,0,0,1-.391-.1.279.279,0,0,1,.074-.4,2.989,2.989,0,0,1,1.636-.484C413.026-125.046,413.722-124.432,413.722-123.447Zm-3.186,1.9v.055c0,.539.371.874,1.05.874a1.9,1.9,0,0,0,.9-.186,1.014,1.014,0,0,0,.576-.92v-.7h-1.394C410.842-122.425,410.536-122.053,410.536-121.551Z" fill="#fff"/>
    <path id="패스_566" data-name="패스 566" d="M418.734-126.272,420.759-122l1.98-4.266c.158-.39.288-.474.557-.474h.075c.335,0,.455.149.455.548v5.836c0,.186-.149.27-.325.27s-.316-.084-.316-.27v-5.6c-.149.418-.279.706-.436,1.05l-1.618,3.447a.375.375,0,0,1-.38.27.377.377,0,0,1-.4-.279l-1.616-3.438c-.158-.334-.288-.632-.446-1.05v5.6c0,.186-.149.27-.326.27a.282.282,0,0,1-.316-.27v-5.836c0-.4.121-.548.456-.548h.074C418.446-126.737,418.557-126.662,418.734-126.272Z" fill="#fff"/>
    <path id="패스_567" data-name="패스 567" d="M429.4-122.852v.018c0,.363-.149.511-.539.511H425.9v.047c0,1.105.557,1.654,1.515,1.654a2.585,2.585,0,0,0,1.393-.353.259.259,0,0,1,.381.111.29.29,0,0,1-.1.4,3.282,3.282,0,0,1-1.709.418,2.012,2.012,0,0,1-2.137-2.305v-.39a2.012,2.012,0,0,1,2.1-2.305A1.958,1.958,0,0,1,429.4-122.852Zm-3.5-.047v.047h2.852v-.075c0-.985-.511-1.552-1.413-1.552A1.389,1.389,0,0,0,425.9-122.9Z" fill="#fff"/>
    <path id="패스_568" data-name="패스 568" d="M434.6-126.718v6.365c0,.186-.157.27-.325.27a.281.281,0,0,1-.315-.27v-.52h-.019a1.671,1.671,0,0,1-1.543.827c-1.264,0-1.933-.79-1.933-2.305v-.39c0-1.552.781-2.305,2-2.305a1.693,1.693,0,0,1,1.468.661v-2.333c0-.195.168-.279.335-.279S434.6-126.913,434.6-126.718Zm-3.474,4.014v.316c0,1.2.445,1.756,1.375,1.756a1.412,1.412,0,0,0,1.44-1.421v-1.283a1.275,1.275,0,0,0-1.422-1.124C431.655-124.46,431.126-123.921,431.126-122.7Z" fill="#fff"/>
    <path id="패스_569" data-name="패스 569" d="M437.065-126.263a.481.481,0,0,1-.493.474.48.48,0,0,1-.492-.474.482.482,0,0,1,.492-.483A.482.482,0,0,1,437.065-126.263Zm-.158,1.561v4.34c0,.195-.158.279-.335.279s-.334-.084-.334-.279v-4.34c0-.195.167-.278.334-.278S436.907-124.9,436.907-124.7Z" fill="#fff"/>
    <path id="패스_570" data-name="패스 570" d="M441.918-124.655a.291.291,0,0,1,.074.418.266.266,0,0,1-.391.093,2.238,2.238,0,0,0-1.189-.307c-.883,0-1.441.53-1.441,1.738v.325c0,1.2.568,1.747,1.459,1.747a2.3,2.3,0,0,0,1.311-.362.264.264,0,0,1,.389.093.287.287,0,0,1-.074.427,2.888,2.888,0,0,1-1.635.437c-1.3,0-2.119-.762-2.119-2.305v-.39c0-1.542.818-2.305,2.11-2.305A2.8,2.8,0,0,1,441.918-124.655Z" fill="#fff"/>
    <path id="패스_571" data-name="패스 571" d="M446.945-123.447v3.1c0,.186-.157.26-.316.26s-.316-.074-.316-.26v-.456H446.3a1.232,1.232,0,0,1-.53.52,2.112,2.112,0,0,1-1.013.233c-1.022,0-1.663-.53-1.663-1.431v-.093c0-.79.511-1.394,1.775-1.394h1.4v-.344c0-.78-.362-1.152-1.18-1.152a2.378,2.378,0,0,0-1.3.4.27.27,0,0,1-.391-.1.279.279,0,0,1,.074-.4,2.986,2.986,0,0,1,1.636-.484C446.249-125.046,446.945-124.432,446.945-123.447Zm-3.187,1.9v.055c0,.539.371.874,1.05.874a1.905,1.905,0,0,0,.9-.186,1.015,1.015,0,0,0,.576-.92v-.7h-1.4C444.065-122.425,443.758-122.053,443.758-121.551Z" fill="#fff"/>
    <path id="패스_572" data-name="패스 572" d="M449.169-126.718v6.356c0,.195-.159.279-.335.279s-.334-.084-.334-.279v-6.356c0-.195.158-.279.334-.279S449.169-126.913,449.169-126.718Z" fill="#fff"/>
    <path id="패스_573" data-name="패스 573" d="M457.468-126.337a.308.308,0,0,1,.075.446.283.283,0,0,1-.41.093,2.748,2.748,0,0,0-1.588-.4c-1.32,0-1.961.874-1.961,2.593v.362c0,1.7.623,2.584,1.979,2.584a2.706,2.706,0,0,0,1.747-.539.3.3,0,0,1,.428.074.318.318,0,0,1-.066.474,3.345,3.345,0,0,1-2.119.632c-1.765,0-2.657-1.087-2.657-3.15v-.511c0-2.073.9-3.151,2.667-3.151A3.445,3.445,0,0,1,457.468-126.337Z" fill="#fff"/>
    <path id="패스_574" data-name="패스 574" d="M459.755-126.727v2.49h.009a1.743,1.743,0,0,1,1.58-.809,1.594,1.594,0,0,1,1.747,1.729v2.955c0,.195-.167.279-.343.279s-.326-.084-.326-.279v-2.8c0-.892-.4-1.292-1.245-1.292a1.337,1.337,0,0,0-1.4,1.274v2.815c0,.195-.158.279-.335.279s-.334-.084-.334-.279v-6.365c0-.186.158-.27.325-.27S459.755-126.913,459.755-126.727Z" fill="#fff"/>
    <path id="패스_575" data-name="패스 575" d="M468.567-122.852v.018c0,.363-.148.511-.539.511h-2.964v.047c0,1.105.557,1.654,1.515,1.654a2.584,2.584,0,0,0,1.393-.353.259.259,0,0,1,.381.111.29.29,0,0,1-.1.4,3.287,3.287,0,0,1-1.709.418,2.012,2.012,0,0,1-2.138-2.305v-.39a2.012,2.012,0,0,1,2.1-2.305A1.958,1.958,0,0,1,468.567-122.852Zm-3.5-.047v.047h2.853v-.075c0-.985-.512-1.552-1.413-1.552A1.389,1.389,0,0,0,465.064-122.9Z" fill="#fff"/>
    <path id="패스_576" data-name="패스 576" d="M473.244-124.655a.291.291,0,0,1,.074.418.266.266,0,0,1-.391.093,2.236,2.236,0,0,0-1.189-.307c-.883,0-1.441.53-1.441,1.738v.325c0,1.2.568,1.747,1.459,1.747a2.3,2.3,0,0,0,1.311-.362.265.265,0,0,1,.39.093.287.287,0,0,1-.075.427,2.888,2.888,0,0,1-1.635.437c-1.3,0-2.118-.762-2.118-2.305v-.39c0-1.542.817-2.305,2.109-2.305A2.8,2.8,0,0,1,473.244-124.655Z" fill="#fff"/>
    <path id="패스_577" data-name="패스 577" d="M475.363-126.718v4.107l2.416-2.276a.312.312,0,0,1,.455.009.285.285,0,0,1-.019.436l-1.57,1.432,1.868,2.406a.3.3,0,0,1-.055.437A.309.309,0,0,1,478-120.2l-1.831-2.379-.808.734v1.487c0,.195-.158.279-.335.279s-.334-.084-.334-.279v-6.356c0-.195.167-.279.334-.279S475.363-126.913,475.363-126.718Z" fill="#fff"/>
    <path id="패스_578" data-name="패스 578" d="M480.392-124.7v2.77c0,.892.4,1.291,1.19,1.291a1.364,1.364,0,0,0,1.44-1.236V-124.7c0-.195.158-.278.334-.278s.335.083.335.278v4.349c0,.186-.158.27-.325.27s-.325-.084-.325-.27v-.492h-.01a1.794,1.794,0,0,1-1.552.8,1.579,1.579,0,0,1-1.756-1.729V-124.7c0-.195.167-.278.344-.278S480.392-124.9,480.392-124.7Z" fill="#fff"/>
    <path id="패스_579" data-name="패스 579" d="M489.445-122.741v.39c0,1.543-.78,2.305-2,2.305a1.723,1.723,0,0,1-1.468-.678v2.165c0,.195-.158.279-.335.279s-.334-.084-.334-.279v-6.152c0-.186.158-.269.325-.269s.326.083.326.269v.5a1.711,1.711,0,0,1,1.543-.837C488.786-125.046,489.445-124.256,489.445-122.741Zm-3.476-.316v1.282a1.305,1.305,0,0,0,1.441,1.143c.845,0,1.376-.539,1.376-1.765v-.307c0-1.189-.438-1.756-1.385-1.756A1.4,1.4,0,0,0,485.969-123.057Z" fill="#fff"/>
  </g>
  <g id="그룹_1081" data-name="그룹 1081" transform="translate(0 0.229)">
    <path id="패스_557" data-name="패스 557" d="M386.44-142.15a15.355,15.355,0,0,0-15.355-15.355,15.356,15.356,0,0,0-15.356,15.355,15.356,15.356,0,0,0,15.356,15.356v8.285C387.012-127.651,386.44-142.15,386.44-142.15Zm-7.238.377a6.965,6.965,0,0,1-3.372,2.806,10.924,10.924,0,0,0-2.91,1.99c-.606.622-1.769,1.849-1.834,2.756L371-134.6a7.823,7.823,0,0,0-1.75-2.374,10.924,10.924,0,0,0-2.91-1.99,6.956,6.956,0,0,1-3.372-2.806c-1.807-3.619,1.315-8.185,5.415-6.913a3.079,3.079,0,0,1,1.976,1.56,2.641,2.641,0,0,1-.588,3.034v.007h-2.243v2.437h2.337v2.336H372.3v-2.336h2.336v-2.437H372.4v-.007a2.642,2.642,0,0,1-.589-3.034,3.083,3.083,0,0,1,1.977-1.56C377.887-149.958,381.008-145.392,379.2-141.773Z" transform="translate(-355.729 157.505)" fill="#fff"/>
  </g>
</svg>
