<svg xmlns="http://www.w3.org/2000/svg" width="240.5" height="32.5" viewBox="0 0 240.5 32.5">
  <g id="그룹_1305" data-name="그룹 1305" transform="translate(-129.5 -2473)">
    <path id="패스_580" data-name="패스 580" d="M1183,174h240" transform="translate(-1053.5 2331)" fill="none" stroke="#fff" stroke-width="1"/>
    <g id="구성_요소" data-name="구성 요소" transform="translate(346 2473)">
      <rect id="사각형_671" data-name="사각형 671" width="24" height="24" fill="rgba(255,255,255,0)"/>
      <path id="패스_468" data-name="패스 468" d="M727.392,1078.85l3.157-3.01q1.754-1.67,3.51-3.337a1.91,1.91,0,0,1,.214-.183.6.6,0,0,1,.757.047.545.545,0,0,1,.08.722,1.81,1.81,0,0,1-.236.248l-6.884,6.546c-.453.431-.708.431-1.157.005l-3.33-3.164a.771.771,0,0,1-.278-.4.53.53,0,0,1,.295-.618.618.618,0,0,1,.755.138q1.324,1.261,2.648,2.521C727.079,1078.515,727.225,1078.677,727.392,1078.85Z" transform="translate(-717.212 -1064.206)" fill="#fff"/>
    </g>
  </g>
</svg>
