<svg xmlns="http://www.w3.org/2000/svg" width="240.5" height="31.5" viewBox="0 0 240.5 31.5">
  <g id="그룹_1304" data-name="그룹 1304" transform="translate(-129.5 -2327)">
    <path id="패스_447" data-name="패스 447" d="M1183,174h240" transform="translate(-1053.5 2184)" fill="none" stroke="#fff" stroke-width="1" opacity="0.65"/>
    <g id="구성_요소" data-name="구성 요소" transform="translate(346 2327)">
      <g id="그룹_1001" data-name="그룹 1001" transform="translate(343 -251)" opacity="0.65">
        <rect id="사각형_671" data-name="사각형 671" width="24" height="24" transform="translate(-343 251)" fill="rgba(255,255,255,0)"/>
        <path id="패스_468" data-name="패스 468" d="M727.392,1078.85l3.157-3.01q1.754-1.67,3.51-3.337a1.91,1.91,0,0,1,.214-.183.6.6,0,0,1,.757.047.545.545,0,0,1,.08.722,1.81,1.81,0,0,1-.236.248l-6.884,6.546c-.453.431-.708.431-1.157.005l-3.33-3.164a.771.771,0,0,1-.278-.4.53.53,0,0,1,.295-.618.618.618,0,0,1,.755.138q1.324,1.261,2.648,2.521C727.079,1078.515,727.225,1078.677,727.392,1078.85Z" transform="translate(-1060.212 -813.206)" fill="#fff"/>
      </g>
    </g>
  </g>
</svg>
